<svg xmlns="http://www.w3.org/2000/svg" xmlns:xlink="http://www.w3.org/1999/xlink" viewBox="0 0 500 500"><defs><clipPath id="freepik--clip-path--inject-68"><rect x="144.46" y="95.52" width="168.47" height="328.77" rx="14.52" style="fill:#263238;stroke:#263238;stroke-linecap:round;stroke-linejoin:round"></rect></clipPath><clipPath id="freepik--clip-path-2--inject-68"><rect x="151.95" y="117.85" width="153.49" height="286.93" style="fill:#fff;stroke:#263238;stroke-linecap:round;stroke-linejoin:round"></rect></clipPath><clipPath id="freepik--clip-path-3--inject-68"><path d="M232.15,194.14s-2.84-5.48-6.29-7.51-11,1.42-11,1.42,4.46-4.66,8.11-5.67,8.92,3.24,8.92,3.24a50.34,50.34,0,0,0-2-8.31c-1.62-5.07-5.67-11.16-5.67-11.16s7.3,4.46,8.92,7.51a53,53,0,0,1,3,7.7s1.22-5.68,2.23-7.5,6.29-3.45,6.29-3.45-3.45,4.67-3.86,6.69-.81,6.49-.81,6.49a17.71,17.71,0,0,1,5.28-2.84c2.43-.6,5.67,2.84,5.67,2.84a11.32,11.32,0,0,0-5.88,1C242.28,186,239.24,197,239.24,197l-6.08-.61Z" style="fill:#68C6C8;stroke:#263238;stroke-linecap:round;stroke-linejoin:round"></path></clipPath><clipPath id="freepik--clip-path-4--inject-68"><path d="M367.17,225.06l-11.08,2.08s-5.25,1.5-9.25,10.75-6,27.25-6,27.25l-2.25-3-4.75,5.25s7.75,15.25,11.25,15.75,9.75-9.75,9.75-9.75a113.33,113.33,0,0,1-3.5,15.75c-2.25,7-5.74,17.24-5.74,32,0,16.76,10,39.25,12.49,47.5s2.25,15.5,4.25,23.75,3.25,22.75,3.25,22.75a93.31,93.31,0,0,1-6.75,6.5c-2.5,2-5.25,4.25-4.25,5s3.75.75,8-.5,9.25-3,10.75-4,1.75-4.25,1.75-6.5-.25-36.25-.25-36.25,17.25,28.5,17.25,32.25,1.25,16.5,4.25,17.5,4.75-4.75,4.75-10.25-4-12.25-4-12.25-2.75-21-4.75-29a130.35,130.35,0,0,0-5.75-16.75s15.5-27.75,17-45-7.25-40-7.25-40,8-19.25,8.25-32-4.25-15-9.5-17.25a29.14,29.14,0,0,0-8.56-2.47l-11.44-1Z" style="fill:#68C6C8;stroke:#263238;stroke-linecap:round;stroke-linejoin:round"></path></clipPath><clipPath id="freepik--clip-path-5--inject-68"><path d="M392.34,239.89l-5.5,24.75-34.93-10.77s-1.32-6.48-4.32-11-9-5.5-9-4.25,5,8.25,5,8.25-5.85-4.07-5.85-2.82,5.1,6.07,6.6,7.07,1.87,5.61,3.62,6.36,34.88,20.89,38.63,23.39,7.75-.75,8.25-1.75,9.35-15.49,13.5-25.75c4.06-10.06-.53-18.25-5.25-22.5a27.11,27.11,0,0,0-5.75-3.25" style="fill:#68C6C8;stroke:#263238;stroke-linecap:round;stroke-linejoin:round"></path></clipPath></defs><g id="freepik--background-simple--inject-68"><path d="M101,207.67s-14.4,63.52,27.23,119.22S242,404.6,299.91,424s112-2.2,132-50.89S410.65,297.82,401.19,234s-2.37-82.16-44.89-131S227.17,54.73,168.93,104.2,101,207.67,101,207.67Z" style="fill:#68C6C8"></path><path d="M101,207.67s-14.4,63.52,27.23,119.22S242,404.6,299.91,424s112-2.2,132-50.89S410.65,297.82,401.19,234s-2.37-82.16-44.89-131S227.17,54.73,168.93,104.2,101,207.67,101,207.67Z" style="fill:#fff;opacity:0.7000000000000001"></path></g><g id="freepik--Plants--inject-68"><path d="M130.67,303c.07,0-1.45-5.52-1.58-5.86-1.5-3.86-6.34-10.2-10.37-9.49-2.89.51-4.55,4-4,7.22s3.44,5.72,5.89,7C123.55,303.25,130.66,303,130.67,303Z" style="fill:#68C6C8"></path><path d="M144,407c3.08,3.89,5.67,7.4,7.73,10.27l3.09-.69c-2.27-3.07-5.33-7.08-9.07-11.6-1.34-1.63-2.81-3.34-4.33-5.08a70.4,70.4,0,0,0,3.28-6.28c2.95.82,8.84-.15,9.6-.29.35,2.24.67,4.42.94,6.48.87,6.56,1.42,12.14,1.77,16.27l2.67-.6c-.43-4.15-1.08-9.7-2.08-16.23-.34-2.27-.74-4.69-1.18-7.17.73-.35,6.67-3.29,8.77-5.88,1.9-2.36,3.8-6,3.39-9.32s-3-5.69-5.79-4.75c-3.93,1.3-6.53,9.53-6.78,13.83,0,.26.08,3,.17,4.77-.18-1-.35-2-.55-3-.38-2.06-.81-4.1-1.26-6.29-.26-1.05-.51-2.11-.77-3.18s-.6-2.16-.9-3.25c-.73-2.51-1.58-5-2.49-7.5,1.52-.45,6.91-2.17,9.09-4.17s4.49-5.24,4.52-8.64-2.18-6.19-5.09-5.77c-4,.58-7.64,8.28-8.43,12.52,0,.26-.34,3.36-.47,5.07-.55-1.49-1.1-3-1.7-4.47-1.73-4.29-3.61-8.57-5.46-12.84-.56-1.31-1.12-2.62-1.67-3.94.54-.15,7-2,9.42-4.27,2.17-2,4.49-5.23,4.52-8.64s-2.19-6.19-5.09-5.77c-4,.59-7.64,8.29-8.44,12.52-.06.32-.46,4.78-.51,5.92-1.23-2.89-2.43-5.78-3.51-8.69a111.1,111.1,0,0,1-3.78-12.11c.26-.07,7-2,9.48-4.29,2.17-2,4.49-5.23,4.52-8.64s-2.19-6.19-5.09-5.76c-4,.58-7.64,8.28-8.43,12.51-.06.28-.37,3.68-.48,5.3l-.23,0a85.25,85.25,0,0,1-1.87-12.86c-.19-2.4-.26-4.7-.29-6.95,1.28-.2,7.12-1.22,9.55-3s4.93-4.64,5.28-8-1.6-6.46-4.51-6.42c-4.05.06-8.34,7.26-9.51,11.38-.07.22-.51,2.58-.81,4.3,0-1,0-2.06,0-3,.06-3.65.3-7,.53-9.95.15-1.68.31-3.2.47-4.62,1.19-1,5.93-5,7.41-7.84s2.65-6.75,1.65-9.91-3.93-4.76-6.55-3.12c-3.63,2.27-4.7,10.92-4.17,15.16.05.37,1.32,6,1.39,5.93l.07-.06c-.18,1.36-.36,2.83-.53,4.43-.29,3-.59,6.32-.72,10s-.19,7.64.07,11.83a86.78,86.78,0,0,0,1.65,13,.83.83,0,0,0,0,.15c-.62-1.19-2.45-4.42-2.62-4.65-2.31-3.22-8.43-7.77-12.18-5.82-2.71,1.4-3.55,5.24-2.24,8.15s4.6,4.39,7.27,4.81c3,.48,9.38-1.82,9.89-2a112.09,112.09,0,0,0,3.66,12.63c.84,2.39,1.75,4.77,2.68,7.14-.56-1-1.07-1.89-1.15-2-2.32-3.22-8.44-7.76-12.19-5.82-2.71,1.4-3.55,5.25-2.24,8.15s4.61,4.39,7.27,4.81,8.17-1.39,9.61-1.9c.37.9.73,1.81,1.1,2.71,1.77,4.34,3.56,8.65,5.2,12.95.58,1.51,1.1,3,1.63,4.54-.5-.88-.93-1.63-1-1.73-2.32-3.23-8.43-7.77-12.18-5.82-2.71,1.4-3.55,5.24-2.25,8.15s4.61,4.38,7.28,4.81,7.64-1.23,9.35-1.82c.5,1.58,1,3.15,1.43,4.71.27,1.07.59,2.07.81,3.17s.48,2.14.71,3.2c.39,2,.79,4.17,1.13,6.19.24,1.4.44,2.74.66,4.09-.56-1.51-1.72-4.45-1.84-4.68a19.18,19.18,0,0,0-7-7.25,6,6,0,0,0-.62-1c-1.86-2.43-5.15-2.71-7.13-.08-2.74,3.65-1.15,12.09.64,15.77.1.22,1.47,2.42,2.35,3.78-.62-.7-1.22-1.4-1.87-2.12-1.28-1.43-2.59-2.81-4-4.3l-2.12-2.1c-.7-.71-1.51-1.36-2.27-2.06-1.79-1.57-3.67-3-5.59-4.49,1.08-1.37,4.87-6.31,5.8-9.39s1.39-7.23-.16-10-4.72-3.62-7-1.36c-3.16,3.13-2.67,11.79-1.38,15.77.08.25,1.27,3,2,4.45-1.17-.86-2.32-1.72-3.52-2.53-3.47-2.37-7-4.63-10.6-6.91-1.09-.69-2.16-1.4-3.24-2.11.39-.48,5-6.25,6-9.69.93-3.05,1.4-7.23-.15-10s-4.73-3.62-7-1.37c-3.16,3.14-2.66,11.8-1.37,15.78.09.3,1.82,4.21,2.3,5.18-2.38-1.55-4.74-3.13-7-4.8a81.32,81.32,0,0,1-8.82-7.41c.18-.22,5-6.21,6.07-9.73.93-3.06,1.4-7.24-.15-10s-4.73-3.62-7-1.36c-3.17,3.13-2.67,11.79-1.38,15.77.08.26,1.39,3.25,2,4.65l-.18.18a65.84,65.84,0,0,1-7.55-9.28C81.16,347.82,80,346,79,344.16c1-1,5.49-5.68,6.74-8.73s2.05-7,.77-10-4.35-4.23-6.81-2.28c-3.42,2.71-3.73,11.42-2.82,15.55.05.23.76,2.44,1.3,4.05-.47-.83-1-1.68-1.4-2.49-1.64-3-3-5.91-4.15-8.48-.66-1.48-1.23-2.82-1.75-4.09.56-1.58,2.73-8,2.68-11.27s-.87-7.27-3.18-9.19a4.45,4.45,0,0,0-7,1.76c-2,4.24,1.06,12,3.48,15.13.21.27,3.89,4,3.92,3.94l0-.1c.48,1.23,1,2.55,1.6,4,1.13,2.61,2.42,5.55,4,8.62a100.51,100.51,0,0,0,5.54,9.63,68.14,68.14,0,0,0,7.44,9.57l.1.09c-1.08-.56-4.13-2-4.38-2.08-3.46-1.1-10.77-.8-13.06,3.26a6.18,6.18,0,0,0,1.86,8.14c2.51,1.54,6,.55,8.42-.86,2.78-1.58,7.15-7.65,7.49-8.14a83.83,83.83,0,0,0,9,7.91c1.82,1.41,3.69,2.76,5.59,4.08-1-.45-1.79-.84-1.92-.88-3.46-1.11-10.77-.8-13.06,3.26a6.17,6.17,0,0,0,1.86,8.13c2.51,1.55,6,.56,8.42-.85s6.31-6.52,7.3-7.88c.73.5,1.46,1,2.19,1.5,3.51,2.37,7,4.72,10.42,7.16,1.19.85,2.34,1.75,3.49,2.64-.84-.4-1.55-.72-1.66-.76-3.47-1.1-10.77-.8-13.07,3.26a6.18,6.18,0,0,0,1.87,8.14c2.51,1.54,5.95.55,8.42-.86s5.93-6,7.12-7.63c1.15,1,2.31,1.91,3.39,2.9.73.7,1.47,1.31,2.16,2.06l2.08,2.15c1.28,1.43,2.61,2.89,3.83,4.32.85,1,1.65,1.94,2.46,2.91-1.18-.87-3.52-2.51-3.73-2.62-3.27-1.73-10.5-2.74-13.27.87a6.39,6.39,0,0,0,.8,8.42c2.27,2,5.79,1.62,8.39.67,2.87-1,7.75-6.06,8.36-6.69C141.52,404,142.8,405.52,144,407Z" style="fill:#68C6C8"></path><path d="M69.16,349.63c3.14-.7,9-5.62,9-5.63s-3.79-3.56-4-3.75c-3.07-2.17-10.13-4.17-13.22-.94a6.48,6.48,0,0,0,0,8.5C63,350.1,66.49,350.22,69.16,349.63Z" style="fill:#68C6C8"></path><g style="opacity:0.5"><path d="M130.67,303c.07,0-1.45-5.52-1.58-5.86-1.5-3.86-6.34-10.2-10.37-9.49-2.89.51-4.55,4-4,7.22s3.44,5.72,5.89,7C123.55,303.25,130.66,303,130.67,303Z" style="fill:#fff"></path><path d="M144,407c3.08,3.89,5.67,7.4,7.73,10.27l3.09-.69c-2.27-3.07-5.33-7.08-9.07-11.6-1.34-1.63-2.81-3.34-4.33-5.08a70.4,70.4,0,0,0,3.28-6.28c2.95.82,8.84-.15,9.6-.29.35,2.24.67,4.42.94,6.48.87,6.56,1.42,12.14,1.77,16.27l2.67-.6c-.43-4.15-1.08-9.7-2.08-16.23-.34-2.27-.74-4.69-1.18-7.17.73-.35,6.67-3.29,8.77-5.88,1.9-2.36,3.8-6,3.39-9.32s-3-5.69-5.79-4.75c-3.93,1.3-6.53,9.53-6.78,13.83,0,.26.08,3,.17,4.77-.18-1-.35-2-.55-3-.38-2.06-.81-4.1-1.26-6.29-.26-1.05-.51-2.11-.77-3.18s-.6-2.16-.9-3.25c-.73-2.51-1.58-5-2.49-7.5,1.52-.45,6.91-2.17,9.09-4.17s4.49-5.24,4.52-8.64-2.18-6.19-5.09-5.77c-4,.58-7.64,8.28-8.43,12.52,0,.26-.34,3.36-.47,5.07-.55-1.49-1.1-3-1.7-4.47-1.73-4.29-3.61-8.57-5.46-12.84-.56-1.31-1.12-2.62-1.67-3.94.54-.15,7-2,9.42-4.27,2.17-2,4.49-5.23,4.52-8.64s-2.19-6.19-5.09-5.77c-4,.59-7.64,8.29-8.44,12.52-.06.32-.46,4.78-.51,5.92-1.23-2.89-2.43-5.78-3.51-8.69a111.1,111.1,0,0,1-3.78-12.11c.26-.07,7-2,9.48-4.29,2.17-2,4.49-5.23,4.52-8.64s-2.19-6.19-5.09-5.76c-4,.58-7.64,8.28-8.43,12.51-.06.28-.37,3.68-.48,5.3l-.23,0a85.25,85.25,0,0,1-1.87-12.86c-.19-2.4-.26-4.7-.29-6.95,1.28-.2,7.12-1.22,9.55-3s4.93-4.64,5.28-8-1.6-6.46-4.51-6.42c-4.05.06-8.34,7.26-9.51,11.38-.07.22-.51,2.58-.81,4.3,0-1,0-2.06,0-3,.06-3.65.3-7,.53-9.95.15-1.68.31-3.2.47-4.62,1.19-1,5.93-5,7.41-7.84s2.65-6.75,1.65-9.91-3.93-4.76-6.55-3.12c-3.63,2.27-4.7,10.92-4.17,15.16.05.37,1.32,6,1.39,5.93l.07-.06c-.18,1.36-.36,2.83-.53,4.43-.29,3-.59,6.32-.72,10s-.19,7.64.07,11.83a86.78,86.78,0,0,0,1.65,13,.83.83,0,0,0,0,.15c-.62-1.19-2.45-4.42-2.62-4.65-2.31-3.22-8.43-7.77-12.18-5.82-2.71,1.4-3.55,5.24-2.24,8.15s4.6,4.39,7.27,4.81c3,.48,9.38-1.82,9.89-2a112.09,112.09,0,0,0,3.66,12.63c.84,2.39,1.75,4.77,2.68,7.14-.56-1-1.07-1.89-1.15-2-2.32-3.22-8.44-7.76-12.19-5.82-2.71,1.4-3.55,5.25-2.24,8.15s4.61,4.39,7.27,4.81,8.17-1.39,9.61-1.9c.37.9.73,1.81,1.1,2.71,1.77,4.34,3.56,8.65,5.2,12.95.58,1.51,1.1,3,1.63,4.54-.5-.88-.93-1.63-1-1.73-2.32-3.23-8.43-7.77-12.18-5.82-2.71,1.4-3.55,5.24-2.25,8.15s4.61,4.38,7.28,4.81,7.64-1.23,9.35-1.82c.5,1.58,1,3.15,1.43,4.71.27,1.07.59,2.07.81,3.17s.48,2.14.71,3.2c.39,2,.79,4.17,1.13,6.19.24,1.4.44,2.74.66,4.09-.56-1.51-1.72-4.45-1.84-4.68a19.18,19.18,0,0,0-7-7.25,6,6,0,0,0-.62-1c-1.86-2.43-5.15-2.71-7.13-.08-2.74,3.65-1.15,12.09.64,15.77.1.22,1.47,2.42,2.35,3.78-.62-.7-1.22-1.4-1.87-2.12-1.28-1.43-2.59-2.81-4-4.3l-2.12-2.1c-.7-.71-1.51-1.36-2.27-2.06-1.79-1.57-3.67-3-5.59-4.49,1.08-1.37,4.87-6.31,5.8-9.39s1.39-7.23-.16-10-4.72-3.62-7-1.36c-3.16,3.13-2.67,11.79-1.38,15.77.08.25,1.27,3,2,4.45-1.17-.86-2.32-1.72-3.52-2.53-3.47-2.37-7-4.63-10.6-6.91-1.09-.69-2.16-1.4-3.24-2.11.39-.48,5-6.25,6-9.69.93-3.05,1.4-7.23-.15-10s-4.73-3.62-7-1.37c-3.16,3.14-2.66,11.8-1.37,15.78.09.3,1.82,4.21,2.3,5.18-2.38-1.55-4.74-3.13-7-4.8a81.32,81.32,0,0,1-8.82-7.41c.18-.22,5-6.21,6.07-9.73.93-3.06,1.4-7.24-.15-10s-4.73-3.62-7-1.36c-3.17,3.13-2.67,11.79-1.38,15.77.08.26,1.39,3.25,2,4.65l-.18.18a65.84,65.84,0,0,1-7.55-9.28C81.16,347.82,80,346,79,344.16c1-1,5.49-5.68,6.74-8.73s2.05-7,.77-10-4.35-4.23-6.81-2.28c-3.42,2.71-3.73,11.42-2.82,15.55.05.23.76,2.44,1.3,4.05-.47-.83-1-1.68-1.4-2.49-1.64-3-3-5.91-4.15-8.48-.66-1.48-1.23-2.82-1.75-4.09.56-1.58,2.73-8,2.68-11.27s-.87-7.27-3.18-9.19a4.45,4.45,0,0,0-7,1.76c-2,4.24,1.06,12,3.48,15.13.21.27,3.89,4,3.92,3.94l0-.1c.48,1.23,1,2.55,1.6,4,1.13,2.61,2.42,5.55,4,8.62a100.51,100.51,0,0,0,5.54,9.63,68.14,68.14,0,0,0,7.44,9.57l.1.09c-1.08-.56-4.13-2-4.38-2.08-3.46-1.1-10.77-.8-13.06,3.26a6.18,6.18,0,0,0,1.86,8.14c2.51,1.54,6,.55,8.42-.86,2.78-1.58,7.15-7.65,7.49-8.14a83.83,83.83,0,0,0,9,7.91c1.82,1.41,3.69,2.76,5.59,4.08-1-.45-1.79-.84-1.92-.88-3.46-1.11-10.77-.8-13.06,3.26a6.17,6.17,0,0,0,1.86,8.13c2.51,1.55,6,.56,8.42-.85s6.31-6.52,7.3-7.88c.73.5,1.46,1,2.19,1.5,3.51,2.37,7,4.72,10.42,7.16,1.19.85,2.34,1.75,3.49,2.64-.84-.4-1.55-.72-1.66-.76-3.47-1.1-10.77-.8-13.07,3.26a6.18,6.18,0,0,0,1.87,8.14c2.51,1.54,5.95.55,8.42-.86s5.93-6,7.12-7.63c1.15,1,2.31,1.91,3.39,2.9.73.7,1.47,1.31,2.16,2.06l2.08,2.15c1.28,1.43,2.61,2.89,3.83,4.32.85,1,1.65,1.94,2.46,2.91-1.18-.87-3.52-2.51-3.73-2.62-3.27-1.73-10.5-2.74-13.27.87a6.39,6.39,0,0,0,.8,8.42c2.27,2,5.79,1.62,8.39.67,2.87-1,7.75-6.06,8.36-6.69C141.52,404,142.8,405.52,144,407Z" style="fill:#fff"></path><path d="M69.16,349.63c3.14-.7,9-5.62,9-5.63s-3.79-3.56-4-3.75c-3.07-2.17-10.13-4.17-13.22-.94a6.48,6.48,0,0,0,0,8.5C63,350.1,66.49,350.22,69.16,349.63Z" style="fill:#fff"></path></g><path d="M120.37,175.41s-2.11-3.21-2.26-3.39c-1.79-2.14-6.23-5.15-8.64-3.84-1.74.95-2,3.52-1,5.45a7.17,7.17,0,0,0,5.24,3.18C115.9,177.13,120.36,175.41,120.37,175.41Z" style="fill:#68C6C8"></path><path d="M151.15,238.89c2.79,1.82,5.2,3.5,7.13,4.89l1.82-1.11c-2.11-1.46-4.91-3.36-8.27-5.44-1.2-.76-2.5-1.53-3.84-2.32a45.42,45.42,0,0,0,.74-4.7c2.06-.11,5.61-2,6.06-2.24.7,1.35,1.37,2.67,2,3.93,2,4,3.51,7.43,4.62,10l1.57-.95c-1.16-2.56-2.77-6-4.8-9.9-.7-1.38-1.48-2.83-2.29-4.32.39-.38,3.55-3.52,4.33-5.63.71-1.9,1.14-4.61.17-6.66s-3.11-3-4.71-1.79c-2.23,1.67-2.12,7.47-1.36,10.27,0,.16.7,1.91,1.13,3-.33-.6-.65-1.2-1-1.82-.68-1.22-1.39-2.43-2.15-3.73l-1.17-1.86c-.38-.63-.85-1.25-1.27-1.88-1-1.44-2.08-2.85-3.19-4.25.87-.61,3.93-2.86,4.89-4.6s1.75-4.3,1-6.48-2.71-3.48-4.48-2.58c-2.44,1.23-3.09,6.91-2.69,9.78,0,.18.51,2.22.79,3.33-.67-.83-1.34-1.67-2-2.48-2-2.37-4.13-4.69-6.23-7-.64-.71-1.27-1.43-1.91-2.15.31-.21,4-2.78,5.09-4.74,1-1.73,1.74-4.29,1-6.47s-2.72-3.48-4.48-2.59c-2.45,1.24-3.1,6.92-2.69,9.79,0,.21.73,3.14.93,3.88-1.4-1.58-2.78-3.16-4.09-4.79a72.35,72.35,0,0,1-5-6.91c.14-.1,4-2.76,5.12-4.76,1-1.73,1.74-4.3,1-6.47s-2.72-3.48-4.48-2.59c-2.45,1.24-3.1,6.92-2.69,9.78,0,.19.55,2.43.83,3.48l-.14.08a56.06,56.06,0,0,1-4-7.8c-.63-1.48-1.17-2.94-1.67-4.36.77-.41,4.27-2.3,5.45-4s2.15-4,1.64-6.24-2.4-3.78-4.25-3.13c-2.57.9-3.76,6.41-3.62,9.29,0,.16.23,1.75.4,2.91-.21-.65-.45-1.31-.64-1.93-.75-2.34-1.31-4.53-1.79-6.46-.27-1.11-.5-2.11-.7-3.05.55-.88,2.71-4.45,3-6.58s.24-4.87-1.07-6.67-3.53-2.19-4.85-.59c-1.82,2.23-.66,8,.59,10.56.11.22,2.13,3.53,2.16,3.48l0-.05c.18.91.38,1.88.61,2.94.45,1.95,1,4.15,1.68,6.51s1.52,4.91,2.58,7.53a58.33,58.33,0,0,0,3.84,8l.06.09c-.65-.62-2.51-2.29-2.66-2.4-2.17-1.56-7-3.15-9-1.1-1.42,1.47-1.13,4.1.32,5.67s3.88,1.81,5.67,1.51c2-.34,5.59-3.17,5.87-3.4a75.61,75.61,0,0,0,5,7.27c1,1.34,2.14,2.67,3.24,4-.57-.52-1.09-1-1.17-1-2.17-1.56-7-3.15-9-1.1-1.43,1.47-1.14,4.1.31,5.67s3.88,1.81,5.67,1.51,4.91-2.64,5.72-3.27c.43.49.85,1,1.28,1.49,2.06,2.38,4.12,4.75,6.09,7.14.69.84,1.35,1.69,2,2.55l-1-.9c-2.17-1.55-7-3.14-9-1.09-1.42,1.47-1.14,4.1.32,5.67s3.88,1.81,5.67,1.51,4.6-2.42,5.57-3.16c.65.89,1.31,1.79,1.92,2.69.4.62.82,1.19,1.19,1.84l1.14,1.89c.68,1.23,1.4,2.49,2,3.71.46.84.88,1.65,1.3,2.47-.68-.85-2.05-2.48-2.17-2.6a13,13,0,0,0-6-3.12,4.23,4.23,0,0,0-.61-.51,2.9,2.9,0,0,0-4.56,1.48c-1,2.92,1.86,8,3.79,9.91.11.12,1.45,1.23,2.31,1.91l-1.65-1c-1.12-.64-2.25-1.24-3.47-1.89l-1.8-.88c-.59-.31-1.25-.55-1.88-.83-1.48-.61-3-1.15-4.53-1.66.39-1.11,1.75-5.07,1.68-7.23s-.65-4.9-2.24-6.36-3.79-1.29-4.76.63c-1.34,2.67.83,8.09,2.5,10.35.11.14,1.45,1.62,2.2,2.42-.92-.3-1.84-.6-2.78-.86-2.72-.77-5.48-1.45-8.23-2.13l-2.53-.65c.15-.4,1.85-5.06,1.78-7.47-.07-2.15-.66-4.91-2.25-6.36s-3.79-1.3-4.76.63c-1.34,2.67.83,8.09,2.5,10.35.13.17,2.07,2.29,2.58,2.81-1.85-.49-3.69-1-5.5-1.56a55.93,55.93,0,0,1-7.21-2.83c.07-.19,1.87-5,1.79-7.51-.06-2.15-.66-4.91-2.25-6.36s-3.78-1.3-4.75.63c-1.35,2.67.83,8.08,2.5,10.34.11.15,1.58,1.78,2.3,2.53a1.09,1.09,0,0,1-.08.15,44.74,44.74,0,0,1-6.79-4.3c-1.21-.89-2.32-1.82-3.38-2.75.41-.86,2.28-4.8,2.42-7s-.2-4.92-1.66-6.56-3.67-1.76-4.83,0c-1.6,2.46.07,8.07,1.54,10.52.08.13,1,1.39,1.7,2.29-.48-.43-1-.86-1.43-1.28-1.69-1.57-3.17-3.13-4.46-4.52-.74-.8-1.39-1.53-2-2.23,0-1.13,0-5.67-.71-7.76s-2.11-4.44-4-5.17a3,3,0,0,0-4.1,2.62c-.38,3.14,3.25,7.44,5.46,8.9.19.13,3.34,1.73,3.34,1.67v-.07c.57.68,1.18,1.41,1.87,2.19,1.28,1.42,2.73,3,4.4,4.64a70.07,70.07,0,0,0,5.59,4.95,46.76,46.76,0,0,0,6.79,4.5l.09,0c-.81-.13-3.06-.39-3.24-.39-2.44,0-7,1.8-7.63,4.88a4.16,4.16,0,0,0,2.94,4.78c1.93.45,3.91-.92,5.18-2.35,1.43-1.6,2.91-6.41,3-6.79a56.51,56.51,0,0,0,7.41,3.12c1.46.51,2.94,1,4.43,1.4L117,225c-2.44,0-7,1.8-7.63,4.88a4.16,4.16,0,0,0,2.94,4.78c1.93.45,3.91-.92,5.18-2.34s2.62-5.51,3-6.59l1.72.49c2.75.76,5.49,1.5,8.17,2.33.95.29,1.87.61,2.79.93-.61-.07-1.14-.12-1.22-.12-2.44,0-7,1.79-7.63,4.87a4.17,4.17,0,0,0,2.94,4.79c1.93.44,3.91-.92,5.18-2.35s2.49-5.11,2.9-6.39c.94.36,1.89.72,2.79,1.12.61.29,1.21.52,1.81.85l1.79.92c1.12.64,2.28,1.29,3.36,1.94.76.44,1.47.89,2.19,1.33-.93-.3-2.78-.85-2.94-.88-2.45-.4-7.27.51-8.26,3.41a4.29,4.29,0,0,0,2.31,5.19c1.87.78,4-.21,5.49-1.37s3.65-5.52,3.9-6.05C148.92,237.45,150.07,238.18,151.15,238.89Z" style="fill:#68C6C8"></path><path d="M91.17,218.33c1.84-1.11,4.56-5.52,4.56-5.52s-3.18-1.46-3.39-1.52c-2.42-.73-7.34-.49-8.62,2.23a4.34,4.34,0,0,0,1.8,5.42C87.33,220,89.59,219.28,91.17,218.33Z" style="fill:#68C6C8"></path><g style="opacity:0.5"><path d="M120.37,175.41s-2.11-3.21-2.26-3.39c-1.79-2.14-6.23-5.15-8.64-3.84-1.74.95-2,3.52-1,5.45a7.17,7.17,0,0,0,5.24,3.18C115.9,177.13,120.36,175.41,120.37,175.41Z" style="fill:#fff"></path><path d="M151.15,238.89c2.79,1.82,5.2,3.5,7.13,4.89l1.82-1.11c-2.11-1.46-4.91-3.36-8.27-5.44-1.2-.76-2.5-1.53-3.84-2.32a45.42,45.42,0,0,0,.74-4.7c2.06-.11,5.61-2,6.06-2.24.7,1.35,1.37,2.67,2,3.93,2,4,3.51,7.43,4.62,10l1.57-.95c-1.16-2.56-2.77-6-4.8-9.9-.7-1.38-1.48-2.83-2.29-4.32.39-.38,3.55-3.52,4.33-5.63.71-1.9,1.14-4.61.17-6.66s-3.11-3-4.71-1.79c-2.23,1.67-2.12,7.47-1.36,10.27,0,.16.7,1.91,1.13,3-.33-.6-.65-1.2-1-1.82-.68-1.22-1.39-2.43-2.15-3.73l-1.17-1.86c-.38-.63-.85-1.25-1.27-1.88-1-1.44-2.08-2.85-3.19-4.25.87-.61,3.93-2.86,4.89-4.6s1.75-4.3,1-6.48-2.71-3.48-4.48-2.58c-2.44,1.23-3.09,6.91-2.69,9.78,0,.18.51,2.22.79,3.33-.67-.83-1.34-1.67-2-2.48-2-2.37-4.13-4.69-6.23-7-.64-.71-1.27-1.43-1.91-2.15.31-.21,4-2.78,5.09-4.74,1-1.73,1.74-4.29,1-6.47s-2.72-3.48-4.48-2.59c-2.45,1.24-3.1,6.92-2.69,9.79,0,.21.73,3.14.93,3.88-1.4-1.58-2.78-3.16-4.09-4.79a72.35,72.35,0,0,1-5-6.91c.14-.1,4-2.76,5.12-4.76,1-1.73,1.74-4.3,1-6.47s-2.72-3.48-4.48-2.59c-2.45,1.24-3.1,6.92-2.69,9.78,0,.19.55,2.43.83,3.48l-.14.08a56.06,56.06,0,0,1-4-7.8c-.63-1.48-1.17-2.94-1.67-4.36.77-.41,4.27-2.3,5.45-4s2.15-4,1.64-6.24-2.4-3.78-4.25-3.13c-2.57.9-3.76,6.41-3.62,9.29,0,.16.23,1.75.4,2.91-.21-.65-.45-1.31-.64-1.93-.75-2.34-1.31-4.53-1.79-6.46-.27-1.11-.5-2.11-.7-3.05.55-.88,2.71-4.45,3-6.58s.24-4.87-1.07-6.67-3.53-2.19-4.85-.59c-1.82,2.23-.66,8,.59,10.56.11.22,2.13,3.53,2.16,3.48l0-.05c.18.91.38,1.88.61,2.94.45,1.95,1,4.15,1.68,6.51s1.52,4.91,2.58,7.53a58.33,58.33,0,0,0,3.84,8l.06.09c-.65-.62-2.51-2.29-2.66-2.4-2.17-1.56-7-3.15-9-1.1-1.42,1.47-1.13,4.1.32,5.67s3.88,1.81,5.67,1.51c2-.34,5.59-3.17,5.87-3.4a75.61,75.61,0,0,0,5,7.27c1,1.34,2.14,2.67,3.24,4-.57-.52-1.09-1-1.17-1-2.17-1.56-7-3.15-9-1.1-1.43,1.47-1.14,4.1.31,5.67s3.88,1.81,5.67,1.51,4.91-2.64,5.72-3.27c.43.49.85,1,1.28,1.49,2.06,2.38,4.12,4.75,6.09,7.14.69.84,1.35,1.69,2,2.55l-1-.9c-2.17-1.55-7-3.14-9-1.09-1.42,1.47-1.14,4.1.32,5.67s3.88,1.81,5.67,1.51,4.6-2.42,5.57-3.16c.65.89,1.31,1.79,1.92,2.69.4.62.82,1.19,1.19,1.84l1.14,1.89c.68,1.23,1.4,2.49,2,3.71.46.84.88,1.65,1.3,2.47-.68-.85-2.05-2.48-2.17-2.6a13,13,0,0,0-6-3.12,4.23,4.23,0,0,0-.61-.51,2.9,2.9,0,0,0-4.56,1.48c-1,2.92,1.86,8,3.79,9.91.11.12,1.45,1.23,2.31,1.91l-1.65-1c-1.12-.64-2.25-1.24-3.47-1.89l-1.8-.88c-.59-.31-1.25-.55-1.88-.83-1.48-.61-3-1.15-4.53-1.66.39-1.11,1.75-5.07,1.68-7.23s-.65-4.9-2.24-6.36-3.79-1.29-4.76.63c-1.34,2.67.83,8.09,2.5,10.35.11.14,1.45,1.62,2.2,2.42-.92-.3-1.84-.6-2.78-.86-2.72-.77-5.48-1.45-8.23-2.13l-2.53-.65c.15-.4,1.85-5.06,1.78-7.47-.07-2.15-.66-4.91-2.25-6.36s-3.79-1.3-4.76.63c-1.34,2.67.83,8.09,2.5,10.35.13.17,2.07,2.29,2.58,2.81-1.85-.49-3.69-1-5.5-1.56a55.93,55.93,0,0,1-7.21-2.83c.07-.19,1.87-5,1.79-7.51-.06-2.15-.66-4.91-2.25-6.36s-3.78-1.3-4.75.63c-1.35,2.67.83,8.08,2.5,10.34.11.15,1.58,1.78,2.3,2.53a1.09,1.09,0,0,1-.08.15,44.74,44.74,0,0,1-6.79-4.3c-1.21-.89-2.32-1.82-3.38-2.75.41-.86,2.28-4.8,2.42-7s-.2-4.92-1.66-6.56-3.67-1.76-4.83,0c-1.6,2.46.07,8.07,1.54,10.52.08.13,1,1.39,1.7,2.29-.48-.43-1-.86-1.43-1.28-1.69-1.57-3.17-3.13-4.46-4.52-.74-.8-1.39-1.53-2-2.23,0-1.13,0-5.67-.71-7.76s-2.11-4.44-4-5.17a3,3,0,0,0-4.1,2.62c-.38,3.14,3.25,7.44,5.46,8.9.19.13,3.34,1.73,3.34,1.67v-.07c.57.68,1.18,1.41,1.87,2.19,1.28,1.42,2.73,3,4.4,4.64a70.07,70.07,0,0,0,5.59,4.95,46.76,46.76,0,0,0,6.79,4.5l.09,0c-.81-.13-3.06-.39-3.24-.39-2.44,0-7,1.8-7.63,4.88a4.16,4.16,0,0,0,2.94,4.78c1.93.45,3.91-.92,5.18-2.35,1.43-1.6,2.91-6.41,3-6.79a56.51,56.51,0,0,0,7.41,3.12c1.46.51,2.94,1,4.43,1.4L117,225c-2.44,0-7,1.8-7.63,4.88a4.16,4.16,0,0,0,2.94,4.78c1.93.45,3.91-.92,5.18-2.34s2.62-5.51,3-6.59l1.72.49c2.75.76,5.49,1.5,8.17,2.33.95.29,1.87.61,2.79.93-.61-.07-1.14-.12-1.22-.12-2.44,0-7,1.79-7.63,4.87a4.17,4.17,0,0,0,2.94,4.79c1.93.44,3.91-.92,5.18-2.35s2.49-5.11,2.9-6.39c.94.36,1.89.72,2.79,1.12.61.29,1.21.52,1.81.85l1.79.92c1.12.64,2.28,1.29,3.36,1.94.76.44,1.47.89,2.19,1.33-.93-.3-2.78-.85-2.94-.88-2.45-.4-7.27.51-8.26,3.41a4.29,4.29,0,0,0,2.31,5.19c1.87.78,4-.21,5.49-1.37s3.65-5.52,3.9-6.05C148.92,237.45,150.07,238.18,151.15,238.89Z" style="fill:#fff"></path><path d="M91.17,218.33c1.84-1.11,4.56-5.52,4.56-5.52s-3.18-1.46-3.39-1.52c-2.42-.73-7.34-.49-8.62,2.23a4.34,4.34,0,0,0,1.8,5.42C87.33,220,89.59,219.28,91.17,218.33Z" style="fill:#fff"></path></g><path d="M360.83,124.75c.05.06,3.59-4.88,3.78-5.21,2.18-3.82,4.18-12.05.91-14.9-2.36-2-6.33-1.09-8.59,1.56s-2.43,6.66-1.82,9.52C355.83,119.08,360.83,124.74,360.83,124.75Z" style="fill:#68C6C8"></path><path d="M283.87,205.23c-1.15,5.14-2.32,9.63-3.31,13.24l2.63,2.08c1-3.91,2.28-9.12,3.51-15.22.45-2.2.89-4.55,1.31-7a72.84,72.84,0,0,0,7.37-1.49c1.29,3,6,7.19,6.65,7.73-1.62,1.78-3.21,3.5-4.73,5.1-4.82,5.1-9.06,9.28-12.23,12.33l2.28,1.8c3.13-3.13,7.28-7.38,12-12.55,1.64-1.8,3.37-3.75,5.12-5.77.78.37,7.17,3.31,10.71,3.31,3.21,0,7.45-.85,9.95-3.43s2.72-6.24.06-8c-3.7-2.37-12.23,1-15.95,3.65-.22.15-2.43,2.08-3.82,3.32.72-.82,1.42-1.62,2.14-2.48,1.44-1.68,2.84-3.4,4.34-5.24.7-.91,1.4-1.83,2.12-2.75s1.37-1.94,2.08-2.91c1.57-2.29,3.07-4.66,4.52-7.07,1.39.95,6.4,4.25,9.51,4.71s7.32.21,10.14-2,3.65-5.93,1.36-8c-3.17-2.94-11.93-.77-15.95,1.4-.25.14-3,2-4.5,3,.86-1.45,1.73-2.9,2.55-4.39,2.38-4.3,4.66-8.7,6.95-13.08.7-1.34,1.42-2.67,2.13-4,.49.35,6.33,4.4,9.81,4.92,3.1.46,7.32.21,10.15-2s3.65-5.94,1.36-8.05c-3.18-2.94-11.94-.77-16,1.4-.3.16-4.25,2.81-5.23,3.53,1.56-2.94,3.15-5.86,4.83-8.7a117.75,117.75,0,0,1,7.46-11.2c.23.16,6.3,4.42,9.87,5,3.09.46,7.32.21,10.15-2s3.64-5.93,1.35-8c-3.17-2.94-11.93-.77-16,1.4-.27.15-3.28,2.16-4.69,3.15l-.18-.17a91.29,91.29,0,0,1,9.35-10.13c1.85-1.75,3.7-3.35,5.54-4.87,1,.92,5.76,5,8.85,5.88s7.12,1,10.15-1,4.26-5.63,2.28-8c-2.75-3.3-11.56-2-15.74-.24-.23.09-2.46,1.3-4.08,2.2.84-.67,1.69-1.38,2.5-2,3.05-2.39,6-4.42,8.58-6.21,1.48-1,2.84-1.88,4.12-2.7,1.6.33,8.08,1.56,11.41.88s7.34-2.32,9.28-5.25,1.3-6.43-1.8-7.49c-4.3-1.48-12.15,3.41-15.29,6.68-.27.29-4.05,5.09-4,5.1l.1,0c-1.25.77-2.57,1.6-4,2.53-2.63,1.74-5.6,3.73-8.71,6.07s-6.43,5-9.72,8A92.65,92.65,0,0,0,345,140.07a1.13,1.13,0,0,1-.1.13c.57-1.3,2-5,2.09-5.26,1.11-4.06.78-12.14-3.33-13.94-3-1.29-6.7.58-8.22,3.6s-.54,6.73.89,9.21c1.61,2.8,7.76,6.53,8.25,6.82a117.81,117.81,0,0,0-8,11.46c-1.41,2.29-2.77,4.62-4.1,7,.45-1.14.84-2.15.88-2.3,1.11-4.06.78-12.14-3.34-13.94-3-1.29-6.69.58-8.21,3.59s-.55,6.74.88,9.22,6.61,5.81,8,6.66L329.17,165c-2.38,4.36-4.75,8.71-7.2,12.93-.86,1.49-1.76,2.94-2.66,4.39.4-1,.72-1.86.76-2,1.11-4.07.78-12.14-3.34-13.94-3-1.3-6.69.57-8.22,3.59s-.54,6.73.89,9.21,6.11,5.49,7.74,6.51c-1,1.46-1.92,2.93-2.92,4.32-.7.93-1.32,1.87-2.07,2.78s-1.46,1.82-2.17,2.72c-1.44,1.69-2.91,3.44-4.36,5.07-1,1.13-2,2.2-2.93,3.27.87-1.47,2.53-4.38,2.64-4.64a20.43,20.43,0,0,0,1.32-10.59,6.35,6.35,0,0,0,.41-1.18c.76-3.15-1.21-6.06-4.7-5.93-4.84.18-10.73,7.12-12.58,11.06-.11.23-1,2.82-1.55,4.46.17-1,.34-1.94.5-3,.33-2,.59-4,.89-6.16.1-1,.2-2.09.31-3.15s.12-2.16.19-3.25c.09-2.52.06-5.06,0-7.61,1.86,0,8.47-.2,11.62-1.49s6.9-3.67,8.17-6.83-.16-6.31-3.55-6.68c-4.69-.52-11.51,5.67-13.93,9.39-.15.24-1.6,3-2.36,4.59-.07-1.53-.14-3.06-.26-4.6-.37-4.43-.89-8.89-1.38-13.34-.15-1.37-.29-2.73-.43-4.09.66,0,8.49-.05,12-1.49,3.14-1.28,6.9-3.68,8.18-6.83s-.17-6.32-3.55-6.69c-4.7-.52-11.51,5.68-13.94,9.4-.18.28-2.26,4.31-2.73,5.36-.31-3-.59-6-.73-9a87.27,87.27,0,0,1,.23-12.23c.3,0,8.47,0,12.09-1.48,3.14-1.28,6.9-3.68,8.17-6.83s-.17-6.32-3.55-6.69c-4.69-.52-11.51,5.68-13.93,9.4-.16.24-1.75,3.32-2.47,4.79l-.27,0a70.49,70.49,0,0,1,2.62-12.42c.66-2.27,1.42-4.43,2.21-6.52,1.5.15,8.35.74,11.71-.27s7.16-3,8.78-6.06.59-6.41-2.67-7.14c-4.51-1-11.9,4.55-14.71,8.06-.15.19-1.5,2.26-2.46,3.77.37-.94.74-1.91,1.11-2.81,1.4-3.37,2.89-6.41,4.23-9.1.78-1.52,1.51-2.89,2.2-4.16,1.68-.6,8.41-3.08,11.09-5.32S317,81,317,77.83a4.7,4.7,0,0,0-6.13-4.62c-4.87,1.15-9.21,8.89-10.17,13-.08.35-.71,5.89-.62,5.86l.1,0c-.7,1.22-1.43,2.53-2.2,4-1.4,2.67-3,5.7-4.44,9.07a108.29,108.29,0,0,0-4.25,11,72.25,72.25,0,0,0-2.92,12.53.76.76,0,0,0,0,.15c-.26-1.26-1.11-4.74-1.21-5-1.4-3.6-6.53-9.42-11.41-8.6a6.54,6.54,0,0,0-5.46,7c.4,3.1,3.51,5.28,6.32,6.37,3.17,1.24,11.09.78,11.72.75a87.4,87.4,0,0,0-.54,12.67c.06,2.45.19,4.89.37,7.33-.26-1.07-.5-2-.55-2.16-1.4-3.6-6.54-9.42-11.42-8.6a6.56,6.56,0,0,0-5.46,7c.4,3.1,3.52,5.28,6.32,6.37s9.59.85,11.38.76c.07.94.14,1.88.22,2.81.39,4.48.8,8.95,1.06,13.37.09,1.56.11,3.1.15,4.65-.24-1-.44-1.76-.49-1.88-1.4-3.6-6.53-9.42-11.41-8.6a6.55,6.55,0,0,0-5.46,7c.4,3.1,3.52,5.29,6.32,6.38s8.93.87,11,.77c0,1.59,0,3.19-.12,4.74-.09,1.06-.1,2.08-.26,3.16s-.25,2.11-.38,3.15c-.32,2-.64,4.08-1,6-.24,1.36-.5,2.66-.76,4-.07-1.55-.28-4.58-.33-4.83-.76-3.85-4.74-10.48-9.58-10.36a6.77,6.77,0,0,0-6.41,6.28c-.12,3.2,2.53,5.86,5.05,7.37,2.78,1.67,10.17,2.36,11.1,2.44C284.76,201.14,284.32,203.25,283.87,205.23Z" style="fill:#68C6C8"></path><path d="M281.25,105.18c2.67,2.12,10.68,3.71,10.69,3.71s.41-5.5.38-5.85c-.26-4-3.32-11.13-8-11.53a6.87,6.87,0,0,0-7,5.66C276.73,100.39,279,103.38,281.25,105.18Z" style="fill:#68C6C8"></path><g style="opacity:0.5"><path d="M360.83,124.75c.05.06,3.59-4.88,3.78-5.21,2.18-3.82,4.18-12.05.91-14.9-2.36-2-6.33-1.09-8.59,1.56s-2.43,6.66-1.82,9.52C355.83,119.08,360.83,124.74,360.83,124.75Z" style="fill:#fff"></path><path d="M283.87,205.23c-1.15,5.14-2.32,9.63-3.31,13.24l2.63,2.08c1-3.91,2.28-9.12,3.51-15.22.45-2.2.89-4.55,1.31-7a72.84,72.84,0,0,0,7.37-1.49c1.29,3,6,7.19,6.65,7.73-1.62,1.78-3.21,3.5-4.73,5.1-4.82,5.1-9.06,9.28-12.23,12.33l2.28,1.8c3.13-3.13,7.28-7.38,12-12.55,1.64-1.8,3.37-3.75,5.12-5.77.78.37,7.17,3.31,10.71,3.31,3.21,0,7.45-.85,9.95-3.43s2.72-6.24.06-8c-3.7-2.37-12.23,1-15.95,3.65-.22.15-2.43,2.08-3.82,3.32.72-.82,1.42-1.62,2.14-2.48,1.44-1.68,2.84-3.4,4.34-5.24.7-.91,1.4-1.83,2.12-2.75s1.37-1.94,2.08-2.91c1.57-2.29,3.07-4.66,4.52-7.07,1.39.95,6.4,4.25,9.51,4.71s7.32.21,10.14-2,3.65-5.93,1.36-8c-3.17-2.94-11.93-.77-15.95,1.4-.25.14-3,2-4.5,3,.86-1.45,1.73-2.9,2.55-4.39,2.38-4.3,4.66-8.7,6.95-13.08.7-1.34,1.42-2.67,2.13-4,.49.35,6.33,4.4,9.81,4.92,3.1.46,7.32.21,10.15-2s3.65-5.94,1.36-8.05c-3.18-2.94-11.94-.77-16,1.4-.3.16-4.25,2.81-5.23,3.53,1.56-2.94,3.15-5.86,4.83-8.7a117.75,117.75,0,0,1,7.46-11.2c.23.16,6.3,4.42,9.87,5,3.09.46,7.32.21,10.15-2s3.64-5.93,1.35-8c-3.17-2.94-11.93-.77-16,1.4-.27.15-3.28,2.16-4.69,3.15l-.18-.17a91.29,91.29,0,0,1,9.35-10.13c1.85-1.75,3.7-3.35,5.54-4.87,1,.92,5.76,5,8.85,5.88s7.12,1,10.15-1,4.26-5.63,2.28-8c-2.75-3.3-11.56-2-15.74-.24-.23.09-2.46,1.3-4.08,2.2.84-.67,1.69-1.38,2.5-2,3.05-2.39,6-4.42,8.58-6.21,1.48-1,2.84-1.88,4.12-2.7,1.6.33,8.08,1.56,11.41.88s7.34-2.32,9.28-5.25,1.3-6.43-1.8-7.49c-4.3-1.48-12.15,3.41-15.29,6.68-.27.29-4.05,5.09-4,5.1l.1,0c-1.25.77-2.57,1.6-4,2.53-2.63,1.74-5.6,3.73-8.71,6.07s-6.43,5-9.72,8A92.65,92.65,0,0,0,345,140.07a1.13,1.13,0,0,1-.1.13c.57-1.3,2-5,2.09-5.26,1.11-4.06.78-12.14-3.33-13.94-3-1.29-6.7.58-8.22,3.6s-.54,6.73.89,9.21c1.61,2.8,7.76,6.53,8.25,6.82a117.81,117.81,0,0,0-8,11.46c-1.41,2.29-2.77,4.62-4.1,7,.45-1.14.84-2.15.88-2.3,1.11-4.06.78-12.14-3.34-13.94-3-1.29-6.69.58-8.21,3.59s-.55,6.74.88,9.22,6.61,5.81,8,6.66L329.17,165c-2.38,4.36-4.75,8.71-7.2,12.93-.86,1.49-1.76,2.94-2.66,4.39.4-1,.72-1.86.76-2,1.11-4.07.78-12.14-3.34-13.94-3-1.3-6.69.57-8.22,3.59s-.54,6.73.89,9.21,6.11,5.49,7.74,6.51c-1,1.46-1.92,2.93-2.92,4.32-.7.93-1.32,1.87-2.07,2.78s-1.46,1.82-2.17,2.72c-1.44,1.69-2.91,3.44-4.36,5.07-1,1.13-2,2.2-2.93,3.27.87-1.47,2.53-4.38,2.64-4.64a20.43,20.43,0,0,0,1.32-10.59,6.35,6.35,0,0,0,.41-1.18c.76-3.15-1.21-6.06-4.7-5.93-4.84.18-10.73,7.12-12.58,11.06-.11.23-1,2.82-1.55,4.46.17-1,.34-1.94.5-3,.33-2,.59-4,.89-6.16.1-1,.2-2.09.31-3.15s.12-2.16.19-3.25c.09-2.52.06-5.06,0-7.61,1.86,0,8.47-.2,11.62-1.49s6.9-3.67,8.17-6.83-.16-6.31-3.55-6.68c-4.69-.52-11.51,5.67-13.93,9.39-.15.24-1.6,3-2.36,4.59-.07-1.53-.14-3.06-.26-4.6-.37-4.43-.89-8.89-1.38-13.34-.15-1.37-.29-2.73-.43-4.09.66,0,8.49-.05,12-1.49,3.14-1.28,6.9-3.68,8.18-6.83s-.17-6.32-3.55-6.69c-4.7-.52-11.51,5.68-13.94,9.4-.18.28-2.26,4.31-2.73,5.36-.31-3-.59-6-.73-9a87.27,87.27,0,0,1,.23-12.23c.3,0,8.47,0,12.09-1.48,3.14-1.28,6.9-3.68,8.17-6.83s-.17-6.32-3.55-6.69c-4.69-.52-11.51,5.68-13.93,9.4-.16.24-1.75,3.32-2.47,4.79l-.27,0a70.49,70.49,0,0,1,2.62-12.42c.66-2.27,1.42-4.43,2.21-6.52,1.5.15,8.35.74,11.71-.27s7.16-3,8.78-6.06.59-6.41-2.67-7.14c-4.51-1-11.9,4.55-14.71,8.06-.15.19-1.5,2.26-2.46,3.77.37-.94.74-1.91,1.11-2.81,1.4-3.37,2.89-6.41,4.23-9.1.78-1.52,1.51-2.89,2.2-4.16,1.68-.6,8.41-3.08,11.09-5.32S317,81,317,77.83a4.7,4.7,0,0,0-6.13-4.62c-4.87,1.15-9.21,8.89-10.17,13-.08.35-.71,5.89-.62,5.86l.1,0c-.7,1.22-1.43,2.53-2.2,4-1.4,2.67-3,5.7-4.44,9.07a108.29,108.29,0,0,0-4.25,11,72.25,72.25,0,0,0-2.92,12.53.76.76,0,0,0,0,.15c-.26-1.26-1.11-4.74-1.21-5-1.4-3.6-6.53-9.42-11.41-8.6a6.54,6.54,0,0,0-5.46,7c.4,3.1,3.51,5.28,6.32,6.37,3.17,1.24,11.09.78,11.72.75a87.4,87.4,0,0,0-.54,12.67c.06,2.45.19,4.89.37,7.33-.26-1.07-.5-2-.55-2.16-1.4-3.6-6.54-9.42-11.42-8.6a6.56,6.56,0,0,0-5.46,7c.4,3.1,3.52,5.28,6.32,6.37s9.59.85,11.38.76c.07.94.14,1.88.22,2.81.39,4.48.8,8.95,1.06,13.37.09,1.56.11,3.1.15,4.65-.24-1-.44-1.76-.49-1.88-1.4-3.6-6.53-9.42-11.41-8.6a6.55,6.55,0,0,0-5.46,7c.4,3.1,3.52,5.29,6.32,6.38s8.93.87,11,.77c0,1.59,0,3.19-.12,4.74-.09,1.06-.1,2.08-.26,3.16s-.25,2.11-.38,3.15c-.32,2-.64,4.08-1,6-.24,1.36-.5,2.66-.76,4-.07-1.55-.28-4.58-.33-4.83-.76-3.85-4.74-10.48-9.58-10.36a6.77,6.77,0,0,0-6.41,6.28c-.12,3.2,2.53,5.86,5.05,7.37,2.78,1.67,10.17,2.36,11.1,2.44C284.76,201.14,284.32,203.25,283.87,205.23Z" style="fill:#fff"></path><path d="M281.25,105.18c2.67,2.12,10.68,3.71,10.69,3.71s.41-5.5.38-5.85c-.26-4-3.32-11.13-8-11.53a6.87,6.87,0,0,0-7,5.66C276.73,100.39,279,103.38,281.25,105.18Z" style="fill:#fff"></path></g></g><g id="freepik--Floor--inject-68"><line x1="101.61" y1="424.29" x2="443.35" y2="424.29" style="fill:none;stroke:#263238;stroke-linecap:round;stroke-linejoin:round"></line></g><g id="freepik--Device--inject-68"><rect x="144.46" y="95.52" width="168.47" height="328.77" rx="14.52" style="fill:#263238"></rect><g style="clip-path:url(#freepik--clip-path--inject-68)"><path d="M159,95.52A14.52,14.52,0,0,0,144.46,110V409.77a14.5,14.5,0,0,0,5.21,11.14L248,95.52Z" style="fill:#fff;opacity:0.2"></path><path d="M234.42,414.78a5.73,5.73,0,1,0-5.72,5.73A5.72,5.72,0,0,0,234.42,414.78Z" style="fill:none;stroke:#fff;stroke-linecap:round;stroke-linejoin:round"></path></g><rect x="144.46" y="95.52" width="168.47" height="328.77" rx="14.52" style="fill:none;stroke:#263238;stroke-linecap:round;stroke-linejoin:round"></rect><rect x="151.95" y="117.85" width="153.49" height="286.93" style="fill:#fff"></rect><g style="clip-path:url(#freepik--clip-path-2--inject-68)"><path d="M152,292.07c20.12-11.26,49.86-23.66,83.24-23.66a125.38,125.38,0,0,1,70.25,21.27V145H152Z" style="opacity:0.2"></path><path d="M232.15,194.14s-2.84-5.48-6.29-7.51-11,1.42-11,1.42,4.46-4.66,8.11-5.67,8.92,3.24,8.92,3.24a50.34,50.34,0,0,0-2-8.31c-1.62-5.07-5.67-11.16-5.67-11.16s7.3,4.46,8.92,7.51a53,53,0,0,1,3,7.7s1.22-5.68,2.23-7.5,6.29-3.45,6.29-3.45-3.45,4.67-3.86,6.69-.81,6.49-.81,6.49a17.71,17.71,0,0,1,5.28-2.84c2.43-.6,5.67,2.84,5.67,2.84a11.32,11.32,0,0,0-5.88,1C242.28,186,239.24,197,239.24,197l-6.08-.61Z" style="fill:#68C6C8"></path><g style="clip-path:url(#freepik--clip-path-3--inject-68)"><path d="M232.15,194.14s-2.84-5.48-6.29-7.51-11,1.42-11,1.42,4.46-4.66,8.11-5.67,8.92,3.24,8.92,3.24a50.34,50.34,0,0,0-2-8.31c-1.62-5.07-5.67-11.16-5.67-11.16s7.3,4.46,8.92,7.51a53,53,0,0,1,3,7.7s1.22-5.68,2.23-7.5,6.29-3.45,6.29-3.45-3.45,4.67-3.86,6.69-.81,6.49-.81,6.49a17.71,17.71,0,0,1,5.28-2.84c2.43-.6,5.67,2.84,5.67,2.84a11.32,11.32,0,0,0-5.88,1C242.28,186,239.24,197,239.24,197l-6.08-.61Z" style="opacity:0.37"></path></g><path d="M232.15,194.14s-2.84-5.48-6.29-7.51-11,1.42-11,1.42,4.46-4.66,8.11-5.67,8.92,3.24,8.92,3.24a50.34,50.34,0,0,0-2-8.31c-1.62-5.07-5.67-11.16-5.67-11.16s7.3,4.46,8.92,7.51a53,53,0,0,1,3,7.7s1.22-5.68,2.23-7.5,6.29-3.45,6.29-3.45-3.45,4.67-3.86,6.69-.81,6.49-.81,6.49a17.71,17.71,0,0,1,5.28-2.84c2.43-.6,5.67,2.84,5.67,2.84a11.32,11.32,0,0,0-5.88,1C242.28,186,239.24,197,239.24,197l-6.08-.61Z" style="fill:none;stroke:#263238;stroke-linecap:round;stroke-linejoin:round"></path><path d="M232.15,194.14s-1-6.29-3.25-9.53-10.34-6.29-10.34-6.29,7.3-1.42,11.56,1.62,6.28,11.16,6.28,11.16,1.22-8.93,5.07-13,13.79,1.21,13.79,1.21-7.5-2.23-9.93,1.42a44.62,44.62,0,0,0-4.26,9.53s4.86-3,7.5-1.62,3.65,5.88,3.65,5.88-5.07-3.24-7.71-2.43-6.89,7.5-6.89,7.5l-4.26-1.42Z" style="fill:#68C6C8;stroke:#263238;stroke-linecap:round;stroke-linejoin:round"></path><path d="M232,201.72a71.82,71.82,0,0,1-3.54-6.37c-1.22-2.63-2.84-4.25-5.07-3.85a21,21,0,0,0-5.48,2.43s4.06-5.47,9.33-5.27,7.3,6.9,7.3,6.9a11.24,11.24,0,0,1,4-8.52c4.26-3.45,13-1.42,14,0,0,0-7.1-.41-9.33,2.23a14.29,14.29,0,0,0-2.84,4.87s4-3,7.1-1.83,4.25,12.17,4.25,12.17-6.08-7.91-7.9-7.3-5.16,5.18-5.16,5.18Z" style="fill:#68C6C8;stroke:#263238;stroke-linecap:round;stroke-linejoin:round"></path><path d="M233.56,250.91h0a16.42,16.42,0,0,1-16.42-16.42v-11c0-16,7.35-23.73,16.42-23.73h0c9.08,0,16.43,5.48,16.43,23.73v11A16.42,16.42,0,0,1,233.56,250.91Z" style="fill:#fff;stroke:#263238;stroke-linecap:round;stroke-linejoin:round"></path><path d="M248.66,239.32q-.61-2.43-1.33-4.79c.9-.56,1.78-1.07,2.66-1.55v-1.14c-1,.51-2,1.07-3,1.68-.46-1.48-.94-3-1.44-4.39A42,42,0,0,1,250,226.8V224c-.43-1.08-.88-2.16-1.34-3.23l1.25-.48c0-.37,0-.72-.07-1.07-.53.2-1.06.39-1.59.61q-1-2.36-2.12-4.62c1-.48,2-.91,3-1.32-.07-.34-.14-.67-.22-1-1.07.44-2.13.9-3.2,1.42-.7-1.46-1.41-2.86-2.11-4.21,1.21-.64,2.44-1.26,3.71-1.86l-.45-.9c-1.27.6-2.51,1.23-3.72,1.88-.75-1.43-1.48-2.78-2.17-4,1.05-.5,2.13-1,3.23-1.44-.26-.26-.53-.51-.81-.74-1,.42-2,.85-2.91,1.3-.75-1.34-1.45-2.56-2.07-3.62l.37-.14a16.58,16.58,0,0,0-1.88-.44l.07.1c-1.29.55-2.52,1.14-3.71,1.78-.43-.77-.83-1.45-1.19-2.07-.36,0-.71.1-1.07.16.42.7.88,1.49,1.38,2.38-1.53.85-3,1.76-4.34,2.71-.64-1.29-1.22-2.42-1.72-3.38-.29.17-.57.35-.85.54.5,1,1.09,2.12,1.75,3.43-1.45,1-2.8,2.13-4.07,3.24-.56-1.06-1.07-2-1.52-2.8-.21.31-.42.61-.62.93.41.75.87,1.6,1.37,2.55-1.39,1.26-2.68,2.55-3.86,3.82,0-.07-.07-.14-.1-.22-.22.79-.4,1.62-.57,2.48l.4-.47c.52,1.14,1.13,2.45,1.78,3.91-1,1-1.95,2.09-2.82,3.09,0,.43,0,.83,0,1.27v.3q1.49-1.78,3.3-3.69c.56,1.26,1.14,2.6,1.75,4-1.3,1.2-2.48,2.34-3.54,3.39-.54-1.34-1.05-2.56-1.51-3.62v2.57l.75,1.83c-.27.27-.5.52-.75.78v1.45l1.15-1.22c.48,1.19,1,2.46,1.46,3.78-.92.86-1.77,1.68-2.56,2.45,0,.43.08.85.14,1.27.84-.83,1.78-1.74,2.8-2.7.65,1.78,1.3,3.65,1.92,5.56-1,1.07-1.9,2.08-2.7,3,.18.32.36.63.56.93.74-.85,1.58-1.78,2.51-2.78.51,1.66,1,3.33,1.44,5l-1,1.06c.26.22.52.44.79.64l.55-.55.27,1.16c.38.25.78.49,1.19.72-.2-.9-.41-1.8-.64-2.71,1.22-1.23,2.62-2.59,4.14-4,.47,1.45.91,2.88,1.3,4.27-1.23,1.12-2.38,2.18-3.4,3.15.34.15.7.28,1,.4.82-.77,1.71-1.59,2.66-2.45.31,1.13.57,2.22.8,3.27.35,0,.69.07,1,.09-.28-1.32-.6-2.69-1-4.11,1.48-1.32,3.07-2.71,4.74-4.09.52,1.77,1,3.55,1.41,5.31-1.22,1-2.36,2-3.4,2.91a16.53,16.53,0,0,0,1.74-.18l1.91-1.62c.08.39.15.77.23,1.16l1-.32c-.11-.52-.21-1-.33-1.56,1.28-1.07,2.61-2.18,4-3.27.22.84.43,1.67.63,2.51.29-.22.58-.45.86-.69-.21-.83-.42-1.66-.64-2.5,1.48-1.19,3-2.34,4.4-3.4.06.27.12.56.19.83a16.59,16.59,0,0,0,1.16-3Zm-2.51-5.25c-1.55,1-3.11,2.07-4.65,3.2-.48-1.46-1-2.92-1.5-4.36,1.56-1.16,3.14-2.26,4.71-3.24C245.21,231.11,245.69,232.58,246.15,234.07Zm-11-13.54c-.61-1.41-1.21-2.79-1.8-4.12,1.48-1,3-2.08,4.65-3.09q.94,2,1.9,4.13C238.28,218.43,236.69,219.46,235.14,220.53Zm5.15-2.16q.94,2.17,1.88,4.5c-1.63,1-3.23,2-4.78,3.13-.61-1.55-1.24-3.06-1.86-4.53C237.09,220.39,238.68,219.35,240.29,218.37Zm-6,2.75c-1.32.94-2.62,1.9-3.87,2.87-.61-1.38-1.22-2.72-1.82-4,1.23-1,2.54-2,3.9-3C233.1,218.34,233.7,219.71,234.3,221.12Zm-1.38-5.63c-.69-1.55-1.37-3-2-4.4,1.42-1,2.93-2,4.52-3,.69,1.33,1.4,2.76,2.13,4.27Q235.14,213.93,232.92,215.49Zm-.82.59c-1.37,1-2.69,2-3.93,3-.7-1.49-1.39-2.92-2-4.25q1.86-1.58,3.95-3.12C230.73,213.07,231.4,214.54,232.1,216.08Zm-2.49,8.54c-1.58,1.25-3.11,2.5-4.55,3.73-.55-1.35-1.11-2.68-1.66-3.95,1.35-1.22,2.82-2.49,4.41-3.78C228.41,221.91,229,223.25,229.61,224.62Zm.41.94q1,2.28,1.94,4.66c-1.6,1.34-3.12,2.72-4.55,4.07-.63-1.68-1.29-3.34-1.95-5C226.9,228.09,228.43,226.82,230,225.56Zm.81-.63c1.26-1,2.55-1.93,3.87-2.87.62,1.47,1.24,3,1.85,4.54-1.3,1-2.56,1.94-3.78,3C232.13,228,231.49,226.43,230.83,224.93Zm6.12,2.69q.95,2.41,1.85,4.91c-1.28,1-2.54,2-3.77,3q-.89-2.51-1.85-4.93C234.4,229.58,235.66,228.58,237,227.62Zm.84-.61c1.55-1.12,3.15-2.19,4.78-3.16.62,1.57,1.22,3.19,1.8,4.84-1.58,1-3.16,2.06-4.73,3.22Q238.74,229.42,237.79,227Zm11.88-1.16a40.85,40.85,0,0,0-4.42,2.31q-.88-2.46-1.81-4.82c1.41-.81,2.85-1.55,4.3-2.21C248.41,222.69,249.06,224.27,249.67,225.85Zm-2.34-5.65a46.46,46.46,0,0,0-4.28,2.17q-.95-2.33-1.9-4.52,2-1.2,4.07-2.23C245.93,217.11,246.64,218.64,247.33,220.2Zm-2.54-5.48q-2,1-4,2.21-1-2.16-1.91-4.15c1.24-.76,2.53-1.51,3.85-2.23Q243.73,212.56,244.79,214.72Zm-2.56-5.06c-1.31.72-2.59,1.46-3.82,2.22-.73-1.51-1.45-2.93-2.13-4.26,1.2-.7,2.46-1.37,3.76-2C240.74,206.86,241.47,208.23,242.23,209.66Zm-4.78-8.6c.63,1.07,1.34,2.3,2.1,3.67-1.28.64-2.53,1.31-3.73,2-.75-1.42-1.46-2.72-2.11-3.89C234.91,202.2,236.16,201.6,237.45,201.06Zm-4.62,2.25c.66,1.18,1.38,2.5,2.13,3.94-1.57.94-3.07,1.92-4.5,2.92-.7-1.48-1.38-2.87-2-4.12C229.84,205.09,231.3,204.17,232.83,203.31Zm-5.2,3.33c.63,1.25,1.3,2.64,2,4.13q-2.1,1.53-4,3.12-1.09-2.19-2.06-4C224.86,208.77,226.2,207.68,227.63,206.64ZM219,214.46q1.77-2,3.88-3.89c.64,1.2,1.32,2.54,2,4-1.48,1.28-2.85,2.57-4.12,3.84C220.09,216.91,219.48,215.59,219,214.46Zm2.25,4.91c1.27-1.29,2.65-2.6,4.14-3.9q1,2,2,4.22c-1.57,1.28-3,2.53-4.38,3.74C222.37,222,221.77,220.64,221.2,219.37Zm-2.14,9.19c1.05-1.06,2.23-2.22,3.55-3.43.54,1.27,1.09,2.58,1.64,3.93-1.32,1.14-2.56,2.26-3.71,3.32C220,231,219.54,229.76,219.06,228.56Zm1.86,4.83c1.15-1.07,2.39-2.2,3.72-3.36q1,2.47,2,5c-1.36,1.31-2.62,2.6-3.78,3.81C222.21,237,221.57,235.15,220.92,233.39ZM224.67,245c-.45-1.67-.94-3.35-1.47-5,1.16-1.23,2.44-2.53,3.81-3.87.61,1.65,1.2,3.29,1.75,4.92C227.27,242.45,225.9,243.79,224.67,245Zm3.15-9.64c1.42-1.36,3-2.75,4.55-4.11q1,2.43,1.85,4.94c-1.62,1.37-3.18,2.75-4.64,4.09C229,238.66,228.43,237,227.82,235.37Zm3.45,10.28c-.41-1.4-.86-2.83-1.33-4.28,1.46-1.36,3-2.75,4.64-4.13.5,1.44,1,2.89,1.41,4.34C234.33,243,232.74,244.33,231.27,245.65Zm4.13-9.1c1.23-1,2.49-2,3.77-3,.51,1.44,1,2.9,1.48,4.36-1.3,1-2.58,2-3.82,3C236.38,239.44,235.9,238,235.4,236.55Zm3.17,10.71c-.42-1.76-.9-3.53-1.42-5.29,1.25-1,2.53-2.05,3.83-3q.81,2.55,1.53,5.1C241.17,245.11,239.84,246.2,238.57,247.26Zm4.78-3.9c-.47-1.69-1-3.37-1.52-5.06,1.54-1.14,3.09-2.23,4.63-3.22.47,1.6.92,3.23,1.33,4.87C246.35,241,244.85,242.17,243.35,243.36Z" style="fill:#263238"></path><path d="M249.94,229.62a12.47,12.47,0,1,1-24.94,0c0-6.89,5.18-11.31,12.51-11C245.12,219,249.94,222.73,249.94,229.62Z" style="fill:#fff;stroke:#263238;stroke-linecap:round;stroke-linejoin:round"></path><path d="M217.55,206.36l-3-6.82a22.24,22.24,0,0,1-1.8-7.58l-.34-11.1h-7L205.1,192a22.24,22.24,0,0,1-1.8,7.58l-3,6.82a22.29,22.29,0,0,0-1.84,8.89v25a2.57,2.57,0,0,0,2.56,2.57h15.77a2.57,2.57,0,0,0,2.57-2.57v-25A22.3,22.3,0,0,0,217.55,206.36Z" style="fill:#fff;stroke:#263238;stroke-linecap:round;stroke-linejoin:round"></path><polygon points="205.44 180.86 205.43 184.4 212.48 184.4 212.45 180.86 211.28 180.86 206.61 180.86 205.44 180.86" style="fill:#68C6C8;stroke:#263238;stroke-linecap:round;stroke-linejoin:round"></polygon><path d="M208.25,208.08s-6.2-5.67-8.15-6.2-7.26-.71-14.17-.53-6.37,1.06-3.54,2.12,6.73-.17,6.73-.17-4.25-.18-10.09,4.42-7.27,7.27-6.2,7.44,6-3.72,7.26-4.6a9.52,9.52,0,0,1,2.3-1.24s-4.43,5.14-6.38,9.56-5.84,11.69-3.54,13.11,5.67-8.68,5.67-8.68-1.59,8.68-1.42,12.93,2.66,11.34,3.55,7.44,2.48-21.43,2.48-22,1.59,3.72,2.47,1.06.36-12.93.89-13.28,1.77,2.12,3.19.88,6.91-5.84,6.91-5.84-3.19,3.72-.89,3.72,4.78-3.19,5.49-3.55S208.25,208.08,208.25,208.08Z" style="fill:#68C6C8;stroke:#263238;stroke-linecap:round;stroke-linejoin:round"></path><path d="M223,232.17s-2.65-9.39-4.43-15.41-4.78-9.39-6.73-10.1-8.59.73-9.21,5.14,1.6,8.85,3.19,11.87a104.77,104.77,0,0,1,5,10.09c1.24,3.19,2.13,4.61,2.83,7.8s4.08,8.85,5.5,10.8,2.12,4.25,3.54,5,2.12-1.42,2.48-4.25a62.26,62.26,0,0,0-.18-10.27C224.72,241.56,223,232.17,223,232.17Z" style="fill:#fff;stroke:#263238;stroke-linecap:round;stroke-linejoin:round"></path><path d="M215.18,221A12.47,12.47,0,0,1,195,235.67c-4-5.58-2.45-12.2,3.69-16.23C205.05,215.26,211.14,215.44,215.18,221Z" style="fill:#fff;stroke:#263238;stroke-linecap:round;stroke-linejoin:round"></path><polygon points="200.9 219.8 199.03 214.81 200.64 214.3 202.04 219.85 200.9 219.8" style="fill:#fff;stroke:#263238;stroke-linecap:round;stroke-linejoin:round"></polygon><path d="M196.61,225.65a.8.8,0,1,1-1.11-.18A.79.79,0,0,1,196.61,225.65Z" style="fill:none;stroke:#263238;stroke-linecap:round;stroke-linejoin:round;stroke-width:0.5px"></path><path d="M200.15,224.94a.79.79,0,0,1-.18,1.11.8.8,0,1,1,.18-1.11Z" style="fill:none;stroke:#263238;stroke-linecap:round;stroke-linejoin:round;stroke-width:0.5px"></path><path d="M201.62,227.43a.39.39,0,1,1-.64.46.39.39,0,1,1,.64-.46Z" style="fill:none;stroke:#263238;stroke-linecap:round;stroke-linejoin:round;stroke-width:0.5px"></path><path d="M198.41,228.28a.8.8,0,1,1-1.11-.18A.79.79,0,0,1,198.41,228.28Z" style="fill:none;stroke:#263238;stroke-linecap:round;stroke-linejoin:round;stroke-width:0.5px"></path><path d="M235.56,231.8a12.47,12.47,0,1,1-24.94,0c0-6.89,5.18-11.31,12.51-11C230.75,221.19,235.56,224.91,235.56,231.8Z" style="fill:#fff;stroke:#263238;stroke-linecap:round;stroke-linejoin:round"></path><polygon points="224.72 222.43 226.14 217.29 227.73 217.82 225.61 223.13 224.72 222.43" style="fill:#fff;stroke:#263238;stroke-linecap:round;stroke-linejoin:round"></polygon><path d="M217.82,224.64a.8.8,0,1,1-.8-.8A.8.8,0,0,1,217.82,224.64Z" style="fill:none;stroke:#263238;stroke-linecap:round;stroke-linejoin:round;stroke-width:0.5px"></path><path d="M221.09,226.15a.8.8,0,0,1-1.59,0,.8.8,0,1,1,1.59,0Z" style="fill:none;stroke:#263238;stroke-linecap:round;stroke-linejoin:round;stroke-width:0.5px"></path><path d="M220.83,229a.4.4,0,1,1-.8,0,.4.4,0,0,1,.8,0Z" style="fill:none;stroke:#263238;stroke-linecap:round;stroke-linejoin:round;stroke-width:0.5px"></path><path d="M217.73,227.83a.8.8,0,1,1-.8-.8A.8.8,0,0,1,217.73,227.83Z" style="fill:none;stroke:#263238;stroke-linecap:round;stroke-linejoin:round;stroke-width:0.5px"></path><path d="M268.44,234.4a12.47,12.47,0,0,1-24.94,0c0-6.89,5.17-11.31,12.5-11C263.62,223.79,268.44,227.51,268.44,234.4Z" style="fill:#fff;stroke:#263238;stroke-linecap:round;stroke-linejoin:round"></path><polygon points="257.6 225.03 259.01 219.89 260.61 220.42 258.48 225.73 257.6 225.03" style="fill:none;stroke:#263238;stroke-linecap:round;stroke-linejoin:round"></polygon><path d="M250.69,227.24a.8.8,0,0,1-.8.8.8.8,0,0,1,0-1.6A.8.8,0,0,1,250.69,227.24Z" style="fill:none;stroke:#263238;stroke-linecap:round;stroke-linejoin:round;stroke-width:0.5px"></path><path d="M254,228.74a.8.8,0,0,1-1.6,0,.8.8,0,0,1,1.6,0Z" style="fill:none;stroke:#263238;stroke-linecap:round;stroke-linejoin:round;stroke-width:0.5px"></path><path d="M253.7,231.62a.4.4,0,1,1-.4-.4A.4.4,0,0,1,253.7,231.62Z" style="fill:none;stroke:#263238;stroke-linecap:round;stroke-linejoin:round;stroke-width:0.5px"></path><path d="M250.6,230.43a.79.79,0,0,1-.8.79.79.79,0,0,1-.79-.79.79.79,0,0,1,.79-.8A.8.8,0,0,1,250.6,230.43Z" style="fill:none;stroke:#263238;stroke-linecap:round;stroke-linejoin:round;stroke-width:0.5px"></path><path d="M232.52,238.49s21-48.36,33.76-55.66,6.09,16.12.92,32.24-17,41.06-27.68,51.1S220.66,270.12,232.52,238.49Z" style="fill:#fff;stroke:#263238;stroke-linecap:round;stroke-linejoin:round"></path><path d="M257.16,195.91,269,200.78S263.55,192.26,257.16,195.91Z" style="fill:none;stroke:#263238;stroke-linecap:round;stroke-linejoin:round"></path><path d="M251.68,206l11.87,4.86S258.07,202.3,251.68,206Z" style="fill:none;stroke:#263238;stroke-linecap:round;stroke-linejoin:round"></path><path d="M245.6,217.5l11.86,4.87S252,213.85,245.6,217.5Z" style="fill:none;stroke:#263238;stroke-linecap:round;stroke-linejoin:round"></path><path d="M239.82,231.5l11.86,4.86S246.21,227.85,239.82,231.5Z" style="fill:none;stroke:#263238;stroke-linecap:round;stroke-linejoin:round"></path><path d="M233.43,243.66l11.87,4.87S239.82,240,233.43,243.66Z" style="fill:none;stroke:#263238;stroke-linecap:round;stroke-linejoin:round"></path><path d="M229.17,254.92,241,259.78S235.56,251.27,229.17,254.92Z" style="fill:none;stroke:#263238;stroke-linecap:round;stroke-linejoin:round"></path><path d="M191.15,227.85l57.19,12.47L269,232.1s4,35,6.69,48.06,1.83,21.6-1.21,25.86-18.25,10-24,11.55-21.6.61-29.2-2.73-24.64-9.74-30.12-13.39a12.86,12.86,0,0,1-6.08-11.55c.31-2.44,5.78-46.85,6.08-51.1S191.15,227.85,191.15,227.85Z" style="fill:#68C6C8;stroke:#263238;stroke-linecap:round;stroke-linejoin:round"></path><path d="M250,258c.23,6.94.46,15.42.46,21.53,0,12.17,4.25,27.07,1.52,32.55" style="fill:none;stroke:#263238;stroke-linecap:round;stroke-linejoin:round"></path><path d="M249.55,245.79s.12,2.69.26,6.71" style="fill:none;stroke:#263238;stroke-linecap:round;stroke-linejoin:round"></path><rect x="188.86" y="332.96" width="79.67" height="29.11" rx="3.19" style="fill:#263238"></rect><path d="M197.9,349.38a4.58,4.58,0,0,1,0-5.4,3.86,3.86,0,0,1,5.07,0,4.62,4.62,0,0,1,0,5.4,3.86,3.86,0,0,1-5.07,0Zm3.89-.82a4.3,4.3,0,0,0,0-3.75,1.79,1.79,0,0,0-2.71,0,4.3,4.3,0,0,0,0,3.75,1.79,1.79,0,0,0,2.71,0Z" style="fill:#68C6C8"></path><path d="M205.34,350a.78.78,0,0,1-.22-.6V344a.7.7,0,0,1,.25-.58,1,1,0,0,1,.63-.21h2.05a6.41,6.41,0,0,1,.79,0,3.5,3.5,0,0,1,.71.17,1.77,1.77,0,0,1,.58.31,1.44,1.44,0,0,1,.39.51,1.86,1.86,0,0,1,.14.73,1.55,1.55,0,0,1-.38,1.06,2,2,0,0,1-1.18.56v0a1.64,1.64,0,0,1,1,.49,2.12,2.12,0,0,1,.4,1.1l.12,1c0,.07,0,.14,0,.21a.86.86,0,0,1-.19.6.69.69,0,0,1-.54.2.76.76,0,0,1-.56-.21,1,1,0,0,1-.25-.65l-.1-1a1.41,1.41,0,0,0-.31-.86,1.22,1.22,0,0,0-.88-.25h-1.14v2.12a.78.78,0,0,1-.23.6.83.83,0,0,1-1.1,0Zm2.21-3.78.45,0a2.3,2.3,0,0,0,.42-.07,1.06,1.06,0,0,0,.37-.16.67.67,0,0,0,.24-.28,1.06,1.06,0,0,0,.1-.45,1.23,1.23,0,0,0,0-.35.83.83,0,0,0-.12-.25.46.46,0,0,0-.19-.17l-.23-.1a1.3,1.3,0,0,0-.28,0l-.28,0h-1.33v1.92Z" style="fill:#68C6C8"></path><path d="M212.21,349.9a1.2,1.2,0,0,1-.2-.7v-5c0-.66.32-1,1-1h1.33a4.15,4.15,0,0,1,2.89.9,3.41,3.41,0,0,1,1,2.63,3.33,3.33,0,0,1-1,2.57,4,4,0,0,1-2.78.88h-1.63A.65.65,0,0,1,212.21,349.9Zm2.19-.82a2.14,2.14,0,0,0,1.66-.55,2.68,2.68,0,0,0,.49-1.82,3.39,3.39,0,0,0-.24-1.4,1.43,1.43,0,0,0-.7-.75,2.94,2.94,0,0,0-1.25-.23h-.81v4.75Z" style="fill:#68C6C8"></path><path d="M219.63,349.91a1.11,1.11,0,0,1-.2-.65v-5a1.26,1.26,0,0,1,.2-.75.79.79,0,0,1,.68-.27h3.3a.51.51,0,0,1,.41.18.57.57,0,0,1,.17.41.56.56,0,0,1-.17.4.53.53,0,0,1-.41.17H221v1.69h2.45a.57.57,0,0,1,.42.17.56.56,0,0,1,.17.4.56.56,0,0,1-.59.57H221V349h2.77a.53.53,0,0,1,.4.17.6.6,0,0,1,.16.42.55.55,0,0,1-.16.4.53.53,0,0,1-.4.17h-3.53A.65.65,0,0,1,219.63,349.91Z" style="fill:#68C6C8"></path><path d="M225.7,350a.78.78,0,0,1-.22-.6V344a.7.7,0,0,1,.25-.58,1,1,0,0,1,.63-.21h2a6.58,6.58,0,0,1,.8,0,3.57,3.57,0,0,1,.7.17,1.94,1.94,0,0,1,.59.31,1.55,1.55,0,0,1,.38.51,1.86,1.86,0,0,1,.14.73,1.55,1.55,0,0,1-.38,1.06,2,2,0,0,1-1.18.56v0a1.61,1.61,0,0,1,1,.49,2,2,0,0,1,.4,1.1l.12,1c0,.07,0,.14,0,.21a.82.82,0,0,1-.19.6.69.69,0,0,1-.54.2.76.76,0,0,1-.56-.21,1,1,0,0,1-.25-.65l-.1-1a1.35,1.35,0,0,0-.31-.86,1.21,1.21,0,0,0-.87-.25H227v2.12a.78.78,0,0,1-.23.6.83.83,0,0,1-1.1,0Zm2.21-3.78.46,0a2.35,2.35,0,0,0,.41-.07,1.06,1.06,0,0,0,.37-.16.67.67,0,0,0,.24-.28.93.93,0,0,0,.1-.45,1.23,1.23,0,0,0-.05-.35,1.17,1.17,0,0,0-.11-.25.56.56,0,0,0-.2-.17l-.23-.1a1.3,1.3,0,0,0-.28,0l-.28,0H227v1.92Z" style="fill:#68C6C8"></path><path d="M235.3,350a.65.65,0,0,1-.19-.48v-5.41a.92.92,0,0,1,.22-.66.74.74,0,0,1,.56-.24.91.91,0,0,1,.5.17,1.63,1.63,0,0,1,.44.43l3,4.17v-4.1a.66.66,0,0,1,.2-.48.64.64,0,0,1,.47-.19.66.66,0,0,1,.48.19.66.66,0,0,1,.2.48v5.2a1.62,1.62,0,0,1-.19.81.67.67,0,0,1-.6.3A.85.85,0,0,1,240,350a1.92,1.92,0,0,1-.45-.45l-3-4.17v4.12a.63.63,0,0,1-.21.48.64.64,0,0,1-.47.19A.66.66,0,0,1,235.3,350Z" style="fill:#68C6C8"></path><path d="M243.36,349.38a4.58,4.58,0,0,1,0-5.4,3.84,3.84,0,0,1,5.06,0,4.58,4.58,0,0,1,0,5.4,3.84,3.84,0,0,1-5.06,0Zm3.88-.82a3.28,3.28,0,0,0,.44-1.88,3.35,3.35,0,0,0-.43-1.87,1.55,1.55,0,0,0-1.36-.62,1.52,1.52,0,0,0-1.35.62,4.3,4.3,0,0,0,0,3.75,1.54,1.54,0,0,0,1.35.62A1.52,1.52,0,0,0,247.24,348.56Z" style="fill:#68C6C8"></path><path d="M258.08,350a1.1,1.1,0,0,1-.66.21,1.2,1.2,0,0,1-.69-.22,1.16,1.16,0,0,1-.43-.65l-1.36-4.61-1.36,4.61a1.21,1.21,0,0,1-.43.65,1.23,1.23,0,0,1-.69.22,1.13,1.13,0,0,1-.67-.21,1,1,0,0,1-.38-.57l-1.35-5.38a.63.63,0,0,1,0-.19.62.62,0,0,1,.22-.5.72.72,0,0,1,.5-.2.64.64,0,0,1,.43.16.79.79,0,0,1,.25.46l1.13,4.86,1.32-4.43a1.73,1.73,0,0,1,.38-.77.91.91,0,0,1,.68-.25.88.88,0,0,1,.67.25,1.64,1.64,0,0,1,.39.77l1.31,4.43,1.13-4.86a.75.75,0,0,1,.26-.46.61.61,0,0,1,.42-.16.76.76,0,0,1,.51.2.64.64,0,0,1,.21.5,1.23,1.23,0,0,1,0,.19l-1.35,5.38A1,1,0,0,1,258.08,350Z" style="fill:#68C6C8"></path><path d="M237.43,133.09h44.86a6.41,6.41,0,0,1,6.41,6.41v5.55a0,0,0,0,1,0,0H237.43a0,0,0,0,1,0,0v-12A0,0,0,0,1,237.43,133.09Z" style="fill:#263238"></path><path d="M192,133.09h44.86a6.41,6.41,0,0,1,6.41,6.41v5.55a0,0,0,0,1,0,0H192a0,0,0,0,1,0,0v-12A0,0,0,0,1,192,133.09Z" style="fill:#68C6C8"></path><path d="M150.09,133.09h44.86a6.41,6.41,0,0,1,6.41,6.41v5.55a0,0,0,0,1,0,0H150.09a0,0,0,0,1,0,0v-12A0,0,0,0,1,150.09,133.09Z" style="fill:#263238"></path><line x1="150.09" y1="145.06" x2="307.3" y2="145.06" style="fill:none;stroke:#263238;stroke-miterlimit:10"></line><rect x="154.68" y="121.13" width="119.97" height="5.98" style="fill:#fff;stroke:#263238;stroke-linecap:round;stroke-linejoin:round"></rect><rect x="276.77" y="121.13" width="25.95" height="5.98" style="fill:#fff;stroke:#263238;stroke-linecap:round;stroke-linejoin:round"></rect><circle cx="297.66" cy="123.81" r="1.73" style="fill:#fff;stroke:#263238;stroke-linecap:round;stroke-linejoin:round;stroke-width:0.75px"></circle><line x1="299.29" y1="124.83" x2="301.73" y2="126.05" style="fill:none;stroke:#263238;stroke-linecap:round;stroke-linejoin:round;stroke-width:0.75px"></line></g><rect x="151.95" y="117.85" width="153.49" height="286.93" style="fill:none;stroke:#263238;stroke-linecap:round;stroke-linejoin:round"></rect></g><g id="freepik--Character--inject-68"><path d="M351.34,174.64a33.15,33.15,0,0,0-12.5,13.25c-4.25,8.75-1.75,14.5,3,18.25s9.75,11.25,10.25,13.5-1.75,5.5-1.75,5.5,9.75,4.75,17.5,2,10.5-16,8-21.25-17.75-16.5-19.5-23.75-.75-8.75-.75-8.75Z" style="fill:#263238;stroke:#263238;stroke-linecap:round;stroke-linejoin:round"></path><path d="M367.17,225.06l-11.08,2.08s-5.25,1.5-9.25,10.75-6,27.25-6,27.25l-2.25-3-4.75,5.25s7.75,15.25,11.25,15.75,9.75-9.75,9.75-9.75a113.33,113.33,0,0,1-3.5,15.75c-2.25,7-5.74,17.24-5.74,32,0,16.76,10,39.25,12.49,47.5s2.25,15.5,4.25,23.75,3.25,22.75,3.25,22.75a93.31,93.31,0,0,1-6.75,6.5c-2.5,2-5.25,4.25-4.25,5s3.75.75,8-.5,9.25-3,10.75-4,1.75-4.25,1.75-6.5-.25-36.25-.25-36.25,17.25,28.5,17.25,32.25,1.25,16.5,4.25,17.5,4.75-4.75,4.75-10.25-4-12.25-4-12.25-2.75-21-4.75-29a130.35,130.35,0,0,0-5.75-16.75s15.5-27.75,17-45-7.25-40-7.25-40,8-19.25,8.25-32-4.25-15-9.5-17.25a29.14,29.14,0,0,0-8.56-2.47l-11.44-1Z" style="fill:#68C6C8"></path><g style="clip-path:url(#freepik--clip-path-4--inject-68)"><path d="M396.38,234.28a25.34,25.34,0,0,1,6.16-1.94,8.45,8.45,0,0,0-.58-.92,27.68,27.68,0,0,0-6,2,.49.49,0,0,0-.24.66A.51.51,0,0,0,396.38,234.28Z" style="fill:#fff"></path><path d="M391,247.69v1a11.18,11.18,0,0,1,4,1.82.49.49,0,0,0,.69-.12.5.5,0,0,0-.12-.7A11.83,11.83,0,0,0,391,247.69Z" style="fill:#fff"></path><path d="M403.18,251.51a.93.93,0,0,1,.57-.8.61.61,0,0,1,.13,0c.06-.35.12-.7.17-1a1.86,1.86,0,0,0-.67.14,1.94,1.94,0,0,0-1.18,1.54,26.71,26.71,0,0,0-.08,7.35c.28-1,.54-2.1.79-3.17A18.91,18.91,0,0,1,403.18,251.51Z" style="fill:#fff"></path><path d="M402.64,240.34a.49.49,0,0,0,.38.82.45.45,0,0,0,.37-.17,15.93,15.93,0,0,0,1.08-1.4q-.08-.81-.18-1.56A18.05,18.05,0,0,1,402.64,240.34Z" style="fill:#fff"></path><path d="M395.72,271.83a.49.49,0,0,0,.66.24c.41-.19,1-.44,1.69-.7.15-.39.29-.79.45-1.22-1.4.49-2.45,1-2.56,1A.5.5,0,0,0,395.72,271.83Z" style="fill:#fff"></path><path d="M395.6,288.2a.5.5,0,0,0-.12-.7,11.83,11.83,0,0,0-4.52-2v1a10.84,10.84,0,0,1,4,1.82A.49.49,0,0,0,395.6,288.2Z" style="fill:#fff"></path><path d="M402.27,297.3c0-.25-.1-.5-.14-.75a5.17,5.17,0,0,0,.07.55A.48.48,0,0,0,402.27,297.3Z" style="fill:#fff"></path><path d="M382.11,231.21a.51.51,0,0,0,.05.71.51.51,0,0,0,.71,0c.17-.2,3.91-4.57,3.21-7.74L385,224C385.84,226.21,383.21,229.94,382.11,231.21Z" style="fill:#fff"></path><path d="M375.86,225.15a29.51,29.51,0,0,1,4.32-1.55l-2.57-.24c-1.2.44-2.08.84-2.17.88a.52.52,0,0,0-.25.67A.5.5,0,0,0,375.86,225.15Z" style="fill:#fff"></path><path d="M368.62,235.78a4.52,4.52,0,0,0,0-3.14,2.16,2.16,0,0,0-1.27-1.15c-2.78-1-8.91,1.76-9.17,1.88a.5.5,0,0,0-.25.66.52.52,0,0,0,.67.25c1.66-.77,6.41-2.6,8.4-1.85a1.16,1.16,0,0,1,.71.62,3.83,3.83,0,0,1-.13,2.73Z" style="fill:#fff"></path><path d="M353.16,247.69v1a11.1,11.1,0,0,1,3.95,1.82.5.5,0,0,0,.7-.12.51.51,0,0,0-.12-.7A11.81,11.81,0,0,0,353.16,247.69Z" style="fill:#fff"></path><path d="M389.69,247.82a1.93,1.93,0,0,0-1.17,1.54,28.51,28.51,0,0,0,0,8,.5.5,0,0,0,.49.43h.08a.51.51,0,0,0,.42-.57,27.83,27.83,0,0,1,0-7.65.94.94,0,0,1,.56-.81,2,2,0,0,1,.9-.05v-1A2.66,2.66,0,0,0,389.69,247.82Z" style="fill:#fff"></path><path d="M365.58,249.78a2,2,0,0,0-1.18,1.54,28.37,28.37,0,0,0,0,8,.5.5,0,0,0,.49.43H365a.5.5,0,0,0,.43-.56,28.17,28.17,0,0,1,0-7.66c.12-.56.38-.73.57-.8,1.09-.44,3.55.85,4.85,1.77a.5.5,0,0,0,.57-.82C371,251.39,367.53,249,365.58,249.78Z" style="fill:#fff"></path><path d="M382.16,269.71a.48.48,0,0,0,.33.13.49.49,0,0,0,.38-.18c.18-.2,4.42-5.16,3-8.35a2.15,2.15,0,0,0-1.27-1.14c-2.78-1.06-8.91,1.75-9.17,1.87a.5.5,0,1,0,.42.91c1.66-.77,6.41-2.6,8.4-1.85a1.15,1.15,0,0,1,.7.62c1,2.16-1.73,6-2.85,7.29A.49.49,0,0,0,382.16,269.71Z" style="fill:#fff"></path><path d="M364.84,240.34a.49.49,0,0,0,.05.7.52.52,0,0,0,.33.12.48.48,0,0,0,.38-.17,16.6,16.6,0,0,0,3-5.21h-1.05A15.67,15.67,0,0,1,364.84,240.34Z" style="fill:#fff"></path><path d="M357.92,271.83a.5.5,0,0,0,.67.24c1.66-.77,6.42-2.59,8.4-1.84a1.18,1.18,0,0,1,.71.61,3.83,3.83,0,0,1-.13,2.73h1.05a4.49,4.49,0,0,0,0-3.13,2.13,2.13,0,0,0-1.27-1.15c-2.78-1-8.91,1.75-9.17,1.87A.52.52,0,0,0,357.92,271.83Z" style="fill:#fff"></path><path d="M377.24,238.3a.5.5,0,0,0-.7.12c-.29.41-2.86,4.06-2.19,6.39a2.33,2.33,0,0,0,1.44,1.53,6.16,6.16,0,0,0,2.33.44,9,9,0,0,0,4.66-1.47.5.5,0,1,0-.58-.82s-3.07,2.11-6,.92a1.33,1.33,0,0,1-.85-.88c-.45-1.58,1.32-4.53,2.05-5.53A.5.5,0,0,0,377.24,238.3Z" style="fill:#fff"></path><path d="M353.16,285.49v1a10.77,10.77,0,0,1,3.95,1.82.5.5,0,1,0,.58-.82A11.89,11.89,0,0,0,353.16,285.49Z" style="fill:#fff"></path><path d="M389.69,285.62a1.93,1.93,0,0,0-1.17,1.54,28.52,28.52,0,0,0,0,8,.5.5,0,0,0,.49.43h.08a.5.5,0,0,0,.42-.56,27.85,27.85,0,0,1,0-7.65c.11-.57.38-.74.56-.81a1.76,1.76,0,0,1,.9-.05v-1A2.66,2.66,0,0,0,389.69,285.62Z" style="fill:#fff"></path><path d="M365.58,287.57a2,2,0,0,0-1.18,1.55,28.29,28.29,0,0,0,0,8,.5.5,0,0,0,.49.43H365a.5.5,0,0,0,.43-.57,28.07,28.07,0,0,1,0-7.65,1,1,0,0,1,.57-.81c1.09-.43,3.55.86,4.85,1.77a.48.48,0,0,0,.69-.12.49.49,0,0,0-.12-.69C371,289.18,367.52,286.8,365.58,287.57Z" style="fill:#fff"></path><path d="M382.16,307.51a.51.51,0,0,0,.71-.05c.18-.21,4.42-5.16,3-8.35a2.19,2.19,0,0,0-1.27-1.15c-2.78-1-8.91,1.76-9.17,1.88a.5.5,0,0,0-.25.66.52.52,0,0,0,.67.25c1.66-.77,6.41-2.6,8.4-1.85a1.12,1.12,0,0,1,.7.62c1,2.16-1.73,6-2.85,7.29A.49.49,0,0,0,382.16,307.51Z" style="fill:#fff"></path><path d="M367.57,273.57a15.44,15.44,0,0,1-2.24,4c-.18.23-.35.43-.49.59a.51.51,0,0,0,.05.71.51.51,0,0,0,.71,0c0-.06.34-.4.74-1a14.7,14.7,0,0,0,2.28-4.27Z" style="fill:#fff"></path><path d="M377.24,276.1a.51.51,0,0,0-.7.11c-.29.41-2.86,4.07-2.19,6.4a2.33,2.33,0,0,0,1.44,1.53,6.16,6.16,0,0,0,2.33.44,9.06,9.06,0,0,0,4.66-1.47.5.5,0,1,0-.58-.82s-3.07,2.1-6,.92a1.33,1.33,0,0,1-.85-.88c-.45-1.58,1.32-4.53,2.05-5.53A.5.5,0,0,0,377.24,276.1Z" style="fill:#fff"></path><path d="M375.15,413.71v0Z" style="fill:#fff"></path><path d="M351.9,247.82a1.94,1.94,0,0,0-1.18,1.54,28.92,28.92,0,0,0,0,8,.51.51,0,0,0,.5.43h.07a.52.52,0,0,0,.43-.57,27.66,27.66,0,0,1,0-7.65,1,1,0,0,1,.57-.81,2,2,0,0,1,.89-.05v-1A2.62,2.62,0,0,0,351.9,247.82Z" style="fill:#fff"></path><path d="M338.06,263c.23-.11.52-.24.86-.37l-.33-.44-.77.85A.51.51,0,0,0,338.06,263Z" style="fill:#fff"></path><path d="M346.81,260.17c-1.35-.52-3.5-.11-5.38.45-.06.39-.11.75-.16,1.1,1.9-.61,4-1.06,5.19-.62a1.19,1.19,0,0,1,.71.62c1,2.16-1.73,6-2.85,7.29a.48.48,0,0,0,.05.7.45.45,0,0,0,.32.13.49.49,0,0,0,.38-.18c.18-.2,4.43-5.16,3-8.35A2.09,2.09,0,0,0,346.81,260.17Z" style="fill:#fff"></path><path d="M345,245.31a.5.5,0,0,0-.34-.9c-.12.43-.23.87-.34,1.31C344.69,245.5,344.94,245.33,345,245.31Z" style="fill:#fff"></path><path d="M351.21,295.58h.07a.51.51,0,0,0,.43-.56,30.57,30.57,0,0,1-.18-6.51c-.07.21-.13.43-.19.64-.29.87-.59,1.8-.9,2.78.07,1.75.26,3.12.27,3.23A.51.51,0,0,0,351.21,295.58Z" style="fill:#fff"></path><path d="M352.27,286.55a1.72,1.72,0,0,1,.89-.05v-1a2.9,2.9,0,0,0-.78,0c-.1.39-.2.78-.31,1.17A.62.62,0,0,1,352.27,286.55Z" style="fill:#fff"></path><path d="M348.24,299.6c-.37,1.51-.73,3.1-1.06,4.79C348,302.89,348.64,301.1,348.24,299.6Z" style="fill:#fff"></path><path d="M344.41,282.29l-.48.28a2.84,2.84,0,0,0,1.05.54h0a.5.5,0,0,0-.57-.82Z" style="fill:#fff"></path><path d="M338.82,276.15l.57.89c.06-.08.12-.18.17-.24a.51.51,0,0,0-.11-.7A.5.5,0,0,0,338.82,276.15Z" style="fill:#fff"></path></g><path d="M367.17,225.06l-11.08,2.08s-5.25,1.5-9.25,10.75-6,27.25-6,27.25l-2.25-3-4.75,5.25s7.75,15.25,11.25,15.75,9.75-9.75,9.75-9.75a113.33,113.33,0,0,1-3.5,15.75c-2.25,7-5.74,17.24-5.74,32,0,16.76,10,39.25,12.49,47.5s2.25,15.5,4.25,23.75,3.25,22.75,3.25,22.75a93.31,93.31,0,0,1-6.75,6.5c-2.5,2-5.25,4.25-4.25,5s3.75.75,8-.5,9.25-3,10.75-4,1.75-4.25,1.75-6.5-.25-36.25-.25-36.25,17.25,28.5,17.25,32.25,1.25,16.5,4.25,17.5,4.75-4.75,4.75-10.25-4-12.25-4-12.25-2.75-21-4.75-29a130.35,130.35,0,0,0-5.75-16.75s15.5-27.75,17-45-7.25-40-7.25-40,8-19.25,8.25-32-4.25-15-9.5-17.25a29.14,29.14,0,0,0-8.56-2.47l-11.44-1Z" style="fill:none;stroke:#263238;stroke-linecap:round;stroke-linejoin:round"></path><path d="M373.34,422.14c1.5-1,1.75-4.25,1.75-6.5s-.07-25.8-.07-25.8H361.78c.17.84.35,1.68.56,2.55,2,8.25,3.25,22.75,3.25,22.75a93.31,93.31,0,0,1-6.75,6.5c-2.5,2-5.25,4.25-4.25,5s3.75.75,8-.5S371.84,423.14,373.34,422.14Z" style="fill:#fff;stroke:#263238;stroke-linecap:round;stroke-linejoin:round"></path><path d="M392.09,411.64c0,3.75,1.25,16.5,4.25,17.5s4.75-4.75,4.75-10.25-4-12.25-4-12.25-1.12-8.54-2.45-16.8H381C386,398.38,392.09,409.4,392.09,411.64Z" style="fill:#fff;stroke:#263238;stroke-linecap:round;stroke-linejoin:round"></path><path d="M396.34,429.14c3,1,4.75-4.75,4.75-10.25,0-3.47-1.59-7.42-2.76-9.88l.22,5.64s-2.11-1.58-3.42-1.31-2.37,2.37-2.37,2.37l-.44,0C392.81,421,394.08,428.38,396.34,429.14Z" style="fill:#68C6C8;stroke:#263238;stroke-linecap:round;stroke-linejoin:round"></path><path d="M375.07,416.5a11.33,11.33,0,0,1-5.76,2.1,22.37,22.37,0,0,0-.79-3.42c-.53-1.58-2.93,0-2.93,0a93.31,93.31,0,0,1-6.75,6.5c-2.5,2-5.25,4.25-4.25,5s3.75.75,8-.5,9.25-3,10.75-4C374.65,421.26,375,418.65,375.07,416.5Z" style="fill:#68C6C8;stroke:#263238;stroke-linecap:round;stroke-linejoin:round"></path><path d="M347.61,302.3a88,88,0,0,0-2,18.84c0,16.76,10,39.25,12.49,47.5s2.25,15.5,4.25,23.75c.36,1.51.7,3.24,1,5a22.85,22.85,0,0,0,11.69.05l-.21-18.09s5.56,9.18,10.36,17.81a21.5,21.5,0,0,0,10.27-2c-.94-6.26-2.13-13.54-3.13-17.55a130.35,130.35,0,0,0-5.75-16.75s15.5-27.75,17-45a64.38,64.38,0,0,0-.6-14.2c-5.43,2.15-15.27,5-29.73,5C361,306.65,352.74,304.42,347.61,302.3Z" style="fill:#263238;stroke:#263238;stroke-linecap:round;stroke-linejoin:round"></path><path d="M373.79,314s-7.11,35-7.38,41.89,6.85,20.28,6.85,20.28" style="fill:none;stroke:#fff;stroke-linecap:round;stroke-linejoin:round"></path><path d="M354.84,273.39s-6.75-7.5-7-13,5.5-20,5.5-20" style="fill:none;stroke:#263238;stroke-linecap:round;stroke-linejoin:round"></path><path d="M365.84,216.39s3.5,4.25,3.75,6-2.42,2.67-2.42,2.67-5.08,9.83-.58,14.08,10.75.25,13-3.25,3.75-11.75,3.75-11.75a46,46,0,0,1-7.75-8,61.23,61.23,0,0,0-6.25-7.5S367.34,215.14,365.84,216.39Z" style="fill:#fff;stroke:#263238;stroke-linecap:round;stroke-linejoin:round"></path><path d="M347.81,188.11s-2.68,7.79-1.12,12,4.23,4.45,4.45,5.79-1.35,5.35-1.13,6,3.78,1.34,3.78,1.34,4.92,6.88,6.92,6.88,5.57-2.22,6.9-4.23a33,33,0,0,0,2.67-5.78s-1.56-3.79-8.68-7.57S348,192.57,347.81,188.11Z" style="fill:#fff;stroke:#263238;stroke-linecap:round;stroke-linejoin:round"></path><path d="M354.71,204.43c.44.78.49,1.57.13,1.77s-1-.25-1.45-1-.49-1.57-.13-1.78S354.28,203.66,354.71,204.43Z" style="fill:#263238"></path><path d="M351.35,203.7s0-2.88,3-1.78" style="fill:none;stroke:#263238;stroke-linecap:round;stroke-linejoin:round"></path><path d="M356.56,212.9s3.16,1,4.12-2.88" style="fill:none;stroke:#263238;stroke-linecap:round;stroke-linejoin:round"></path><path d="M351.34,174.64s-5.25,8.75-3.75,15,8,11.75,12.75,14.25,12.75,9.75,13,14.5-4.75,7.75-3.75,8.25,9,2.25,13.75-2.5,11.35-9.88,11.1-19.38-9-17.82-12.47-22.82-8.88-12.3-17.38-12.55S352.59,173.39,351.34,174.64Z" style="fill:#263238;stroke:#263238;stroke-linecap:round;stroke-linejoin:round"></path><path d="M350.69,185a14,14,0,0,0,10.81,12.71C372,200.45,388,208,386.37,219.64" style="fill:none;stroke:#707070;stroke-linecap:round;stroke-linejoin:round"></path><path d="M359.34,178s.54,8.11,10,11.36,23,9.19,24.6,19.46" style="fill:none;stroke:#707070;stroke-linecap:round;stroke-linejoin:round"></path><path d="M350.42,177.2s-3.77,8.38-2.83,12.44" style="fill:none;stroke:#707070;stroke-linecap:round;stroke-linejoin:round"></path><path d="M392.34,239.89l-5.5,24.75-34.93-10.77s-1.32-6.48-4.32-11-9-5.5-9-4.25,5,8.25,5,8.25-5.85-4.07-5.85-2.82,5.1,6.07,6.6,7.07,1.87,5.61,3.62,6.36,34.88,20.89,38.63,23.39,7.75-.75,8.25-1.75,9.35-15.49,13.5-25.75c4.06-10.06-.53-18.25-5.25-22.5a27.11,27.11,0,0,0-5.75-3.25" style="fill:#68C6C8"></path><g style="clip-path:url(#freepik--clip-path-5--inject-68)"><path d="M396.38,234.28c1.61-.75,6.09-2.47,8.18-1.91-.35-.39-.71-.76-1.07-1.1-3,0-7.31,2-7.53,2.1a.49.49,0,0,0-.24.66A.51.51,0,0,0,396.38,234.28Z" style="fill:#fff"></path><path d="M406.42,235.78a6,6,0,0,0,.18-.79c-.3-.46-.62-.91-.94-1.33a4.65,4.65,0,0,1-.29,2.12Z" style="fill:#fff"></path><path d="M391,248.7a11.18,11.18,0,0,1,4,1.82.49.49,0,0,0,.69-.12.5.5,0,0,0-.12-.7,11.83,11.83,0,0,0-4.52-2Z" style="fill:#fff"></path><path d="M403.38,249.78a1.94,1.94,0,0,0-1.18,1.54,28.37,28.37,0,0,0,0,8,.5.5,0,0,0,.49.43h.07a.51.51,0,0,0,.43-.56,27.74,27.74,0,0,1,0-7.66.93.93,0,0,1,.57-.8c1.08-.43,3.55.85,4.84,1.77l.06,0c.11-.32.24-.65.34-1C408.18,251,405.15,249.07,403.38,249.78Z" style="fill:#fff"></path><path d="M402.64,240.34a.49.49,0,0,0,.38.82.45.45,0,0,0,.37-.17,16.75,16.75,0,0,0,3-5.21h-1.05A16.12,16.12,0,0,1,402.64,240.34Z" style="fill:#fff"></path><path d="M396.38,272.07a31.87,31.87,0,0,1,3.22-1.23l.7-1.25a32.47,32.47,0,0,0-4.34,1.57.5.5,0,0,0-.24.67A.49.49,0,0,0,396.38,272.07Z" style="fill:#fff"></path><path d="M389,257.78h.08a.51.51,0,0,0,.42-.57s-.21-1.51-.27-3.36l-.74,3.34c0,.08,0,.15,0,.16A.5.5,0,0,0,389,257.78Z" style="fill:#fff"></path><path d="M391,248.7v-1l-.36,0-.22,1A2.28,2.28,0,0,1,391,248.7Z" style="fill:#fff"></path><path d="M364.4,259.31a.5.5,0,0,0,.49.43H365a.5.5,0,0,0,.43-.56s-.07-.47-.13-1.18l-1-.32C364.3,258.6,364.39,259.24,364.4,259.31Z" style="fill:#fff"></path><path d="M375.19,262.7a.51.51,0,0,0,.67.25c.54-.25,1.4-.61,2.39-1l-1.56-.48c-.71.28-1.18.5-1.25.53A.51.51,0,0,0,375.19,262.7Z" style="fill:#fff"></path><path d="M382.49,269.84a.49.49,0,0,0,.38-.18,16.38,16.38,0,0,0,3.05-5.31l-.95-.29a15.12,15.12,0,0,1-2.86,4.95.49.49,0,0,0,.05.7A.48.48,0,0,0,382.49,269.84Z" style="fill:#fff"></path><path d="M350.71,257.35a.51.51,0,0,0,.5.43h.07a.52.52,0,0,0,.43-.57,32.67,32.67,0,0,1-.27-5.24c-.19-.69-.44-1.52-.75-2.44A29.28,29.28,0,0,0,350.71,257.35Z" style="fill:#fff"></path><path d="M339.56,239a.51.51,0,0,0-.11-.7.5.5,0,0,0-.7.12l-.16.23a3.39,3.39,0,0,0,.44,1.17C339.23,239.49,339.42,239.2,339.56,239Z" style="fill:#fff"></path><path d="M344.41,244.49a8.59,8.59,0,0,1-1.87.9l.59.85a9.25,9.25,0,0,0,1.85-.93.5.5,0,0,0-.57-.82Z" style="fill:#fff"></path><path d="M338.48,245.45c.3.4.67.83,1.08,1.28a6.61,6.61,0,0,0,.76.05,7.79,7.79,0,0,0,2.48-.42c-.31-.21-.7-.47-1.13-.73A5.68,5.68,0,0,1,338.48,245.45Z" style="fill:#fff"></path></g><path d="M392.34,239.89l-5.5,24.75-34.93-10.77s-1.32-6.48-4.32-11-9-5.5-9-4.25,5,8.25,5,8.25-5.85-4.07-5.85-2.82,5.1,6.07,6.6,7.07,1.87,5.61,3.62,6.36,34.88,20.89,38.63,23.39,7.75-.75,8.25-1.75,9.35-15.49,13.5-25.75c4.06-10.06-.53-18.25-5.25-22.5a27.11,27.11,0,0,0-5.75-3.25" style="fill:none;stroke:#263238;stroke-linecap:round;stroke-linejoin:round"></path><path d="M380.29,262.8l-28.38-8.93s-1.32-6.48-4.32-11-9-5.5-9-4.25,5,8.25,5,8.25-5.85-4.07-5.85-2.82,5.1,6.07,6.6,7.07,1.87,5.61,3.62,6.36c1.19.51,18.13,10.17,28.53,16.85Z" style="fill:#fff;stroke:#263238;stroke-linecap:round;stroke-linejoin:round"></path><path d="M338.07,238s-4.86.57-4.45,1.56,4.45.25,4.7.25,1.81,0,2.22.41,3,4.69,3,4.69" style="fill:#fff;stroke:#263238;stroke-linecap:round;stroke-linejoin:round"></path><path d="M346.89,242s-3.3-3.62-4.62-4.36-4.61-.17-5.35.41.74,1,1.4.82a10.24,10.24,0,0,1,2.72,0c.33.08,3.46,4.94,3.46,4.94" style="fill:#fff;stroke:#263238;stroke-linecap:round;stroke-linejoin:round"></path><path d="M348.86,245.31a36.28,36.28,0,0,0-2.72-5.11c-1-1.24-5.6-1.07-5.84-.66s2.63.91,3.37,1.07,1.9,2.64,2.14,3.38,1,2.22,1,2.22a40,40,0,0,1,.09,4.2c-.09,2.15,1,4.53,1.89,5.19" style="fill:#fff;stroke:#263238;stroke-linecap:round;stroke-linejoin:round"></path><rect x="323.98" y="225.74" width="12.86" height="26.2" rx="1.69" transform="translate(-45.54 81.12) rotate(-13.1)" style="fill:#263238;stroke:#263238;stroke-linecap:round;stroke-linejoin:round"></rect><path d="M333.84,267.39s-7-12.72-7.44-14-4.18-18-4.34-20.09-.65-4.66.32-4,3.69,11.09,3.69,11.09,1.29-3.05,2.25-5.14,3.06-5.14,3.38-4.34-.48,2.57-.64,3.38-2.25,7.07-2.25,7.07l-.16,2.89s2.57-3.21,3.53-4.34,4.18-2.89,4-1.77-2.73,2.25-2.73,3.06-3.06,5.3-3.06,5.3,3.7-3.86,4.51-4.5,2.25-1.12,1.28.32-3.37,4.82-3.37,4.82,1,4.18,1,5a5.69,5.69,0,0,1-1.13,2.25l5.93,7.79Z" style="fill:#fff;stroke:#263238;stroke-linecap:round;stroke-linejoin:round"></path></g></svg>